<?xml version="1.0" encoding="UTF-8"?>
<svg id="_Слой_1" data-name="Слой 1" xmlns="http://www.w3.org/2000/svg" viewBox="0 0 112.9 112.9">
  <defs>
    <style>
      .cls-1 {
        fill: #fff;
      }
    </style>
  </defs>
  <path class="cls-1" d="M112.9,0v112.9H0V0h112.9ZM87.37,13.2l-7.4-4.37C43.37-8.85,1.58,18.88,3.73,59.54c.39,7.44,2.81,14.48,5.73,21.23l6.59-2.99c-1.97-4.25-3.7-8.65-4.51-13.3C5.66,30.95,36.74,2.98,69.49,12.49c4.73,1.37,9.08,3.68,13.26,6.22-.04.3-.3.39-.56.43-.7.12-4.25.2-4.48.47l.64,7.02,13.74-1.34c1.62-.34,2.95-1.25,3.19-2.97l-1.3-14.4-7.04.66.44,4.62ZM25.97,99.47c17.25,12.12,40.31,12.95,58.3,1.85,20.46-12.61,29.98-37.64,22.75-60.78-.93-2.96-2.34-5.72-3.36-8.63l-6.59,2.99c10.92,21.26,4.04,47.28-16.09,60.05-15.48,9.82-35.46,9.18-50.6-.97.04-.29.3-.39.56-.43.69-.11,4.23-.17,4.48-.47l-.64-7.02-14.9,1.71c-1.12.7-1.78,1.77-1.99,3.07l1.49,14.14,7.04-.66-.44-4.84ZM32.9,73.95h21.9v-7.04h-11.88l5.28-4.74c5.84-6.22,7.16-16.93-1.11-21.76-6.84-4-12.34-.06-18.23,3.31l3.43,6.01c.59.17,5.63-2.96,6.68-3.39,4.28-1.79,7.86,1.7,6.72,6.06-1.34,5.1-9.27,10.46-13.1,14.19-1.61,1.56-3.22,2.87-2.09,5.4.36.8,1.57,1.84,2.42,1.98ZM77.69,57.66l-.17-16.67c-1.09-2.61-4.12-2.52-6.54-2.26-1.21.13-2.02.72-2.71,1.69l-11.6,17.89c-.09,1.97-.66,4.35,1.11,5.73.25.2,1.56.88,1.76.88h11.11v9.02h7.04v-9.02h5.28v-7.26h-5.28Z"/>
  <path class="cls-1" d="M87.37,13.2l-.44-4.62,7.04-.66,1.3,14.4c-.24,1.72-1.57,2.64-3.19,2.97l-13.74,1.34-.64-7.02c.23-.27,3.78-.36,4.48-.47.26-.04.52-.13.56-.43-4.17-2.54-8.53-4.85-13.26-6.22C36.74,2.98,5.66,30.95,11.55,64.49c.81,4.64,2.54,9.05,4.51,13.3l-6.59,2.99c-2.93-6.75-5.34-13.79-5.73-21.23C1.58,18.88,43.37-8.85,79.97,8.83l7.4,4.37Z"/>
  <path class="cls-1" d="M25.97,99.47l.44,4.84-7.04.66-1.49-14.14c.21-1.3.87-2.37,1.99-3.07l14.9-1.71.64,7.02c-.25.3-3.79.36-4.48.47-.26.04-.52.14-.56.43,15.14,10.16,35.11,10.79,50.6.97,20.13-12.77,27.01-38.79,16.09-60.05l6.59-2.99c1.02,2.92,2.44,5.67,3.36,8.63,7.23,23.14-2.29,48.17-22.75,60.78-17.99,11.09-41.05,10.26-58.3-1.85Z"/>
  <path class="cls-1" d="M77.69,57.66h5.28v7.26h-5.28v9.02h-7.04v-9.02h-11.11c-.2,0-1.51-.68-1.76-.88-1.76-1.38-1.2-3.76-1.11-5.73l11.6-17.89c.69-.97,1.51-1.56,2.71-1.69,2.43-.26,5.46-.35,6.54,2.26l.17,16.67ZM70.64,57.66v-7.7l-5.06,7.7h5.06Z"/>
  <path class="cls-1" d="M32.9,73.95c-.85-.14-2.06-1.18-2.42-1.98-1.13-2.53.48-3.83,2.09-5.4,3.83-3.73,11.76-9.08,13.1-14.19,1.14-4.36-2.43-7.84-6.72-6.06-1.05.44-6.09,3.57-6.68,3.39l-3.43-6.01c5.89-3.36,11.39-7.3,18.23-3.31,8.27,4.84,6.96,15.54,1.11,21.76l-5.28,4.74h11.88v7.04h-21.9Z"/>
  <polygon class="cls-1" points="70.64 57.66 65.58 57.66 70.64 49.96 70.64 57.66"/>
</svg>