<?xml version="1.0" encoding="UTF-8"?>
<!DOCTYPE svg PUBLIC "-//W3C//DTD SVG 1.1//EN" "http://www.w3.org/Graphics/SVG/1.1/DTD/svg11.dtd">
<svg xmlns="http://www.w3.org/2000/svg" version="1.1" width="40px" height="40px" style="shape-rendering:geometricPrecision; text-rendering:geometricPrecision; image-rendering:optimizeQuality; fill-rule:evenodd; clip-rule:evenodd" xmlns:xlink="http://www.w3.org/1999/xlink">
<g><path style="opacity:0.714" fill="#000000" d="M 14.5,-0.5 C 17.8333,-0.5 21.1667,-0.5 24.5,-0.5C 26.2905,0.391268 28.1239,1.39127 30,2.5C 31.3236,1.11983 32.6569,0.786496 34,1.5C 35.8406,7.49378 33.6739,9.82711 27.5,8.5C 26.3157,7.31213 26.3157,6.14547 27.5,5C 9.12069,1.045 1.45403,8.37834 4.5,27C 3.99148,28.1685 3.15815,29.0019 2,29.5C 1.24316,27.6854 0.409824,26.0188 -0.5,24.5C -0.5,21.1667 -0.5,17.8333 -0.5,14.5C 2.16667,7.16667 7.16667,2.16667 14.5,-0.5 Z"/></g>
<g><path style="opacity:0.004" fill="#000000" d="M 27.5,8.5 C 26.8333,9.16667 26.8333,9.16667 27.5,8.5 Z"/></g>
<g><path style="opacity:0.711" fill="#000000" d="M 39.5,14.5 C 39.5,17.8333 39.5,21.1667 39.5,24.5C 36.9208,31.4137 32.2541,36.4137 25.5,39.5C 21.5,39.5 17.5,39.5 13.5,39.5C 11.348,36.9281 9.18132,36.5948 7,38.5C 4.45292,36.4314 3.95292,33.9314 5.5,31C 7.4727,30.5045 9.4727,30.3379 11.5,30.5C 12.6843,31.6879 12.6843,32.8545 11.5,34C 21.8539,38.2581 29.6872,35.4247 35,25.5C 35.6631,20.4626 35.4964,15.4626 34.5,10.5C 37.4,10.4078 39.0667,11.7411 39.5,14.5 Z"/></g>
<g><path style="opacity:0.732" fill="#000000" d="M 11.5,12.5 C 16.6906,12.0048 19.1906,14.3381 19,19.5C 20.7433,17.6789 22.2433,15.6789 23.5,13.5C 24.6888,12.5713 26.0222,12.238 27.5,12.5C 27.2695,15.6944 27.9362,18.6944 29.5,21.5C 28.4529,23.0564 27.7863,24.7231 27.5,26.5C 26.5,26.5 25.5,26.5 24.5,26.5C 24.5,25.5 24.5,24.5 24.5,23.5C 22.8333,23.5 21.1667,23.5 19.5,23.5C 19.5,24.5 19.5,25.5 19.5,26.5C 16.1667,26.5 12.8333,26.5 9.5,26.5C 9.35055,25.448 9.51722,24.448 10,23.5C 12.0176,21.6499 13.8509,19.6499 15.5,17.5C 13.5269,16.6689 11.5269,16.5022 9.5,17C 8.66337,15.9887 8.33003,14.8221 8.5,13.5C 9.79105,13.7373 10.791,13.404 11.5,12.5 Z M 16.5,22.5 C 17.2376,20.2398 18.2376,20.0731 19.5,22C 18.552,22.4828 17.552,22.6495 16.5,22.5 Z"/></g>
<g><path style="opacity:0.004" fill="#000000" d="M 11.5,29.5 C 12.8333,30.1667 12.8333,30.1667 11.5,29.5 Z"/></g>
</svg>
