<?xml version="1.0" encoding="UTF-8"?>
<svg id="_Слой_1" data-name="Слой 1" xmlns="http://www.w3.org/2000/svg" viewBox="0 0 403 107">
  <defs>
    <style>
      .cls-1 {
        fill: #fff;
      }

      .cls-2 {
        fill: #344449;
      }

      .cls-3 {
        fill: #708f99;
      }
    </style>
  </defs>
  <rect class="cls-1" width="403" height="107" rx="30" ry="30"/>
  <g>
    <path class="cls-2" d="M141.66,86.88l-3.82-10.62h-14.62l-3.74,10.62h-6.59l14.31-38.39h6.8l14.31,38.39h-6.64ZM136.2,70.88l-3.58-10.41c-.26-.7-.62-1.8-1.09-3.29-.46-1.5-.78-2.6-.95-3.3-.47,2.14-1.16,4.49-2.07,7.04l-3.45,9.96h11.14Z"/>
    <path class="cls-2" d="M167.37,87.41c-3.66,0-6.5-1.32-8.53-3.95h-.37c.24,2.44.37,3.92.37,4.45v11.85h-6.15v-41.79h4.97c.14.54.43,1.83.86,3.87h.31c1.92-2.93,4.79-4.39,8.63-4.39,3.61,0,6.42,1.31,8.43,3.92s3.02,6.29,3.02,11.01-1.02,8.41-3.07,11.06c-2.05,2.65-4.88,3.97-8.49,3.97ZM165.88,62.46c-2.44,0-4.22.71-5.35,2.14-1.12,1.43-1.69,3.71-1.69,6.85v.92c0,3.52.56,6.07,1.67,7.65s2.94,2.37,5.47,2.37c2.13,0,3.77-.87,4.92-2.62,1.15-1.74,1.73-4.23,1.73-7.45s-.57-5.7-1.71-7.36c-1.14-1.66-2.82-2.5-5.03-2.5Z"/>
    <path class="cls-2" d="M200.74,87.41c-3.66,0-6.5-1.32-8.53-3.95h-.37c.24,2.44.37,3.92.37,4.45v11.85h-6.15v-41.79h4.97c.14.54.43,1.83.86,3.87h.31c1.92-2.93,4.79-4.39,8.63-4.39,3.61,0,6.42,1.31,8.43,3.92s3.02,6.29,3.02,11.01-1.02,8.41-3.07,11.06c-2.05,2.65-4.88,3.97-8.49,3.97ZM199.25,62.46c-2.44,0-4.22.71-5.35,2.14-1.12,1.43-1.69,3.71-1.69,6.85v.92c0,3.52.56,6.07,1.67,7.65s2.94,2.37,5.47,2.37c2.13,0,3.77-.87,4.92-2.62,1.15-1.74,1.73-4.23,1.73-7.45s-.57-5.7-1.71-7.36c-1.14-1.66-2.82-2.5-5.03-2.5Z"/>
    <path class="cls-2" d="M256.05,76.5c0,3.4-1.23,6.07-3.69,8-2.46,1.94-5.85,2.9-10.17,2.9s-7.86-.67-10.62-2.01v-5.91c1.74.82,3.6,1.46,5.56,1.94s3.79.71,5.48.71c2.48,0,4.3-.47,5.48-1.41,1.18-.94,1.77-2.21,1.77-3.79,0-1.43-.54-2.64-1.62-3.63-1.08-.99-3.31-2.17-6.69-3.53-3.49-1.41-5.95-3.02-7.38-4.84-1.43-1.81-2.14-3.99-2.14-6.54,0-3.19,1.13-5.7,3.4-7.53,2.27-1.83,5.31-2.75,9.13-2.75s7.31.8,10.93,2.41l-1.99,5.1c-3.4-1.43-6.43-2.14-9.1-2.14-2.02,0-3.56.44-4.6,1.32-1.05.88-1.57,2.04-1.57,3.49,0,.99.21,1.84.63,2.55s1.11,1.37,2.07,2c.96.63,2.68,1.46,5.18,2.48,2.81,1.17,4.86,2.26,6.17,3.27,1.31,1.01,2.27,2.15,2.88,3.43.61,1.27.92,2.77.92,4.5Z"/>
    <path class="cls-2" d="M273.57,82.44c1.5,0,3-.23,4.5-.71v4.63c-.68.3-1.56.54-2.63.74-1.07.2-2.18.3-3.33.3-5.82,0-8.73-3.07-8.73-9.21v-15.59h-3.95v-2.72l4.24-2.25,2.09-6.12h3.79v6.43h8.24v4.66h-8.24v15.48c0,1.48.37,2.58,1.11,3.28.74.71,1.71,1.06,2.92,1.06Z"/>
    <path class="cls-2" d="M309.51,72.37c0,4.72-1.21,8.41-3.64,11.06s-5.8,3.97-10.12,3.97c-2.7,0-5.09-.61-7.17-1.83s-3.67-2.97-4.79-5.26c-1.12-2.29-1.67-4.93-1.67-7.95,0-4.69,1.2-8.35,3.61-10.98,2.41-2.63,5.8-3.95,10.17-3.95s7.5,1.35,9.94,4.04c2.44,2.69,3.66,6.33,3.66,10.89ZM288.45,72.37c0,6.68,2.47,10.02,7.4,10.02s7.32-3.34,7.32-10.02-2.46-9.91-7.37-9.91c-2.58,0-4.45.85-5.61,2.56-1.16,1.71-1.74,4.16-1.74,7.35Z"/>
    <path class="cls-2" d="M331.24,57.44c1.24,0,2.26.09,3.06.26l-.6,5.73c-.87-.21-1.78-.31-2.72-.31-2.46,0-4.45.8-5.98,2.41-1.53,1.6-2.29,3.69-2.29,6.25v15.12h-6.15v-28.92h4.81l.81,5.1h.31c.96-1.72,2.21-3.09,3.75-4.11,1.54-1.01,3.2-1.52,4.98-1.52Z"/>
    <path class="cls-2" d="M352.29,87.41c-4.5,0-8.02-1.31-10.55-3.94-2.54-2.62-3.81-6.24-3.81-10.84s1.18-8.44,3.53-11.14c2.35-2.7,5.59-4.05,9.7-4.05,3.82,0,6.83,1.16,9.05,3.48,2.21,2.32,3.32,5.51,3.32,9.57v3.32h-19.27c.09,2.81.85,4.96,2.28,6.47,1.43,1.51,3.44,2.26,6.04,2.26,1.71,0,3.3-.16,4.77-.48,1.47-.32,3.06-.86,4.75-1.61v5c-1.5.71-3.02,1.22-4.55,1.52-1.53.29-3.29.44-5.26.44ZM351.17,62.09c-1.95,0-3.52.62-4.69,1.86-1.18,1.24-1.88,3.04-2.1,5.41h13.13c-.04-2.39-.61-4.2-1.73-5.43-1.12-1.23-2.65-1.84-4.6-1.84Z"/>
  </g>
  <g>
    <path class="cls-3" d="M128.34,20.58c0,1.31-.43,2.39-1.3,3.23-.87.84-2.07,1.37-3.61,1.6v.08c1.77.21,3.11.73,4.03,1.57.92.83,1.39,1.92,1.39,3.26,0,1.88-.73,3.34-2.2,4.4-1.47,1.06-3.49,1.59-6.08,1.59s-4.83-.36-6.44-1.09v-2.88c.89.42,1.89.75,3,.98,1.11.23,2.12.35,3.04.35,3.54,0,5.31-1.16,5.31-3.48,0-1.07-.53-1.88-1.59-2.44-1.06-.56-2.64-.84-4.72-.84h-2.43v-2.65h2.28c4.02,0,6.03-1.07,6.03-3.21,0-.86-.34-1.53-1.03-2.03-.69-.5-1.64-.75-2.88-.75-.98,0-1.9.13-2.79.39s-1.8.69-2.74,1.31l-1.5-2.23c2.07-1.43,4.5-2.15,7.31-2.15,2.13,0,3.82.46,5.06,1.37s1.86,2.12,1.86,3.64Z"/>
    <path class="cls-3" d="M142.09,36.03l-.65-2.12h-.11c-.74.93-1.48,1.56-2.22,1.9-.74.33-1.7.5-2.87.5-1.5,0-2.67-.4-3.51-1.21-.84-.81-1.26-1.95-1.26-3.43,0-1.57.58-2.76,1.75-3.56s2.95-1.24,5.34-1.31l2.63-.08v-.81c0-.97-.23-1.7-.68-2.19s-1.16-.72-2.12-.72c-.78,0-1.53.12-2.25.35-.72.23-1.41.5-2.07.81l-1.05-2.32c.83-.43,1.73-.76,2.72-.99.98-.22,1.91-.34,2.79-.34,1.94,0,3.4.42,4.39,1.27.99.85,1.48,2.17,1.48,3.99v10.27h-2.32ZM137.26,33.82c1.18,0,2.12-.33,2.83-.99s1.07-1.58,1.07-2.76v-1.32l-1.96.08c-1.53.06-2.64.31-3.33.77s-1.04,1.15-1.04,2.09c0,.68.2,1.21.61,1.58.4.37,1.01.56,1.82.56Z"/>
    <path class="cls-3" d="M158.79,20.77v2.54h-6.62v12.71h-3.24v-15.25h9.86Z"/>
    <path class="cls-3" d="M169.47,36.3c-1.93,0-3.43-.69-4.5-2.08h-.19c.13,1.29.19,2.07.19,2.35v6.25h-3.24v-22.04h2.62c.07.29.23.97.46,2.04h.17c1.01-1.54,2.53-2.32,4.55-2.32,1.9,0,3.39.69,4.45,2.07,1.06,1.38,1.59,3.31,1.59,5.81s-.54,4.44-1.62,5.83c-1.08,1.4-2.57,2.1-4.48,2.1ZM168.68,23.15c-1.29,0-2.23.38-2.82,1.13-.59.75-.89,1.96-.89,3.61v.48c0,1.86.29,3.2.88,4.04s1.55,1.25,2.88,1.25c1.12,0,1.99-.46,2.59-1.38s.91-2.23.91-3.93-.3-3-.9-3.88c-.6-.88-1.49-1.32-2.65-1.32Z"/>
    <path class="cls-3" d="M177.01,20.77h3.53l3.1,8.65c.47,1.23.78,2.39.94,3.47h.11c.08-.5.23-1.12.46-1.84.22-.72,1.39-4.15,3.5-10.28h3.5l-6.52,17.28c-1.19,3.17-3.16,4.76-5.93,4.76-.72,0-1.42-.08-2.1-.24v-2.56c.49.11,1.04.17,1.67.17,1.56,0,2.66-.91,3.3-2.72l.57-1.43-6.12-15.25Z"/>
    <path class="cls-3" d="M197.84,26.87c1.48,0,2.57-.16,3.27-.49s1.05-.83,1.05-1.51c0-1.24-1.1-1.86-3.31-1.86-1.47,0-2.97.33-4.51.99l-1.05-2.41c1.77-.73,3.73-1.09,5.88-1.09,1.89,0,3.37.35,4.41,1.04s1.57,1.69,1.57,2.99c0,1.71-.98,2.83-2.94,3.37v.11c1.22.33,2.1.8,2.63,1.42.53.62.79,1.38.79,2.29,0,1.4-.61,2.51-1.84,3.34s-2.94,1.25-5.14,1.25c-2.4,0-4.23-.32-5.5-.95v-2.8c1.68.79,3.42,1.19,5.23,1.19,1.3,0,2.3-.18,3-.54.7-.36,1.06-.92,1.06-1.66s-.35-1.32-1.06-1.68c-.71-.36-1.8-.54-3.28-.54h-1.86v-2.44h1.61Z"/>
    <path class="cls-3" d="M212.24,20.77v7.82c0,.91-.07,2.25-.22,4.01l7.65-11.83h3.96v15.25h-3.12v-7.68c0-.42.03-1.11.08-2.05.05-.95.09-1.64.13-2.07l-7.63,11.8h-3.96v-15.25h3.1Z"/>
    <path class="cls-3" d="M239.71,20.77v2.54h-4.96v12.71h-3.25v-12.71h-4.96v-2.54h13.18Z"/>
    <path class="cls-3" d="M249.31,36.3c-2.37,0-4.23-.69-5.56-2.08-1.34-1.38-2.01-3.29-2.01-5.72s.62-4.45,1.86-5.88c1.24-1.43,2.95-2.14,5.12-2.14,2.01,0,3.6.61,4.77,1.83,1.17,1.22,1.75,2.91,1.75,5.05v1.75h-10.16c.05,1.48.45,2.62,1.2,3.41.75.8,1.82,1.19,3.19,1.19.9,0,1.74-.08,2.52-.25s1.61-.45,2.5-.85v2.63c-.79.38-1.59.64-2.4.8s-1.73.23-2.77.23ZM248.71,22.95c-1.03,0-1.85.33-2.48.98s-.99,1.6-1.11,2.85h6.92c-.02-1.26-.32-2.21-.91-2.86s-1.4-.97-2.43-.97Z"/>
    <path class="cls-3" d="M279.5,24.68c0,1.8-1.05,2.89-3.16,3.27v.11c1.18.14,2.08.51,2.7,1.12.63.61.94,1.39.94,2.36,0,1.44-.55,2.55-1.65,3.33-1.1.78-2.7,1.17-4.79,1.17h-7.28v-15.25h7.25c3.99,0,5.99,1.3,5.99,3.9ZM276.26,24.95c0-.61-.24-1.05-.71-1.32-.47-.27-1.18-.41-2.12-.41h-3.93v3.67h3.45c1.08,0,1.91-.14,2.47-.42.56-.28.84-.79.84-1.52ZM276.66,31.34c0-.74-.29-1.26-.85-1.57-.57-.31-1.43-.46-2.57-.46h-3.74v4.32h3.82c2.22,0,3.34-.76,3.34-2.29Z"/>
  </g>
  <g>
    <path class="cls-2" d="M85.6,64.58c-11.13-1.66-12.39-16.81-1.68-20.28,2.95-1.95-1.29-5.98-3.04-7.42-4.27-3.49-9.25-5.61-14.69-3.47-4.45,1.66-8.85,2.99-13.5,1.13l-4.19-1.35c-4.36-1.48-8.27-.3-11.95,2.36-14.97,10.78-9.96,34.14-.08,46.71,1.98,2.52,4.8,5.36,8.1,5.74h3.3c3.03-.07,5.65-1.21,8.3-2.45,1.16-.42,2.39-.37,3.55.05,2.55,1.36,5.25,2.15,8.08,2.4h3.15c4.44-.34,7.82-4.78,10.15-8.31,2.18-3.3,4.9-8.47,5.78-12.31.29-1.28.23-2.4-1.26-2.8Z"/>
    <path class="cls-2" d="M59.75,32.47c6.92-1.41,12.82-7.64,13.33-14.8.09-1.21.28-2.67-1-3.23h-2.29l-3.52.86c-6.45,2.03-11.83,9.13-11.49,16,.11,2.28,3.48,1.48,4.97,1.17Z"/>
  </g>
</svg>