<?xml version="1.0" encoding="UTF-8"?>
<svg id="_Слой_1" data-name="Слой 1" xmlns="http://www.w3.org/2000/svg" viewBox="0 0 403 107">
  <defs>
    <style>
      .cls-1 {
        fill: #2195f2;
      }

      .cls-2 {
        fill: #fff;
      }

      .cls-3 {
        fill: #f34336;
      }

      .cls-4 {
        fill: #4cae50;
      }

      .cls-5 {
        fill: #344449;
      }

      .cls-6 {
        fill: #708f99;
      }

      .cls-7 {
        fill: #fec007;
      }
    </style>
  </defs>
  <rect class="cls-2" width="403" height="107" rx="30" ry="30"/>
  <g>
    <path class="cls-5" d="M130.87,65.85h12.23v16.68c-2,.65-3.92,1.11-5.76,1.39-1.84.27-3.83.41-5.96.41-5.03,0-8.91-1.49-11.63-4.46-2.73-2.98-4.09-7.18-4.09-12.6s1.54-9.53,4.61-12.55c3.08-3.02,7.31-4.53,12.7-4.53,3.47,0,6.76.67,9.86,2l-1.91,4.52c-2.7-1.24-5.39-1.86-8.09-1.86-3.54,0-6.35,1.11-8.41,3.34-2.06,2.23-3.09,5.27-3.09,9.13,0,4.06.93,7.15,2.78,9.26,1.86,2.11,4.53,3.17,8.01,3.17,1.76,0,3.64-.22,5.64-.66v-8.57h-6.89v-4.66Z"/>
    <path class="cls-5" d="M172.79,71.25c0,4.11-1.05,7.31-3.16,9.61-2.11,2.3-5.04,3.45-8.79,3.45-2.35,0-4.42-.53-6.23-1.59-1.8-1.06-3.19-2.58-4.16-4.57-.97-1.98-1.45-4.29-1.45-6.91,0-4.07,1.04-7.26,3.14-9.54,2.09-2.29,5.04-3.43,8.84-3.43s6.51,1.17,8.63,3.51c2.12,2.34,3.18,5.49,3.18,9.46ZM154.5,71.25c0,5.8,2.14,8.7,6.43,8.7s6.36-2.9,6.36-8.7-2.14-8.61-6.41-8.61c-2.24,0-3.87.74-4.87,2.23s-1.51,3.61-1.51,6.38Z"/>
    <path class="cls-5" d="M201.22,71.25c0,4.11-1.05,7.31-3.16,9.61-2.11,2.3-5.04,3.45-8.79,3.45-2.35,0-4.42-.53-6.23-1.59-1.8-1.06-3.19-2.58-4.16-4.57-.97-1.98-1.45-4.29-1.45-6.91,0-4.07,1.04-7.26,3.14-9.54,2.09-2.29,5.04-3.43,8.84-3.43s6.51,1.17,8.63,3.51c2.12,2.34,3.18,5.49,3.18,9.46ZM182.93,71.25c0,5.8,2.14,8.7,6.43,8.7s6.36-2.9,6.36-8.7-2.14-8.61-6.41-8.61c-2.24,0-3.87.74-4.87,2.23-1.01,1.48-1.51,3.61-1.51,6.38Z"/>
    <path class="cls-5" d="M228.58,58.73v2.93l-4.29.79c.39.53.72,1.18.98,1.95.26.77.39,1.59.39,2.45,0,2.59-.89,4.63-2.68,6.11-1.79,1.49-4.25,2.23-7.39,2.23-.8,0-1.53-.06-2.18-.18-1.15.71-1.73,1.55-1.73,2.5,0,.58.27,1.01.81,1.3s1.53.43,2.97.43h4.39c2.77,0,4.88.59,6.32,1.77,1.44,1.18,2.16,2.89,2.16,5.11,0,2.85-1.17,5.04-3.52,6.59-2.35,1.55-5.74,2.32-10.18,2.32-3.42,0-6.04-.61-7.84-1.82s-2.7-2.94-2.7-5.18c0-1.54.49-2.84,1.47-3.9s2.34-1.78,4.1-2.19c-.71-.3-1.3-.79-1.76-1.47-.46-.67-.69-1.38-.69-2.12,0-.94.26-1.73.8-2.39.53-.65,1.32-1.29,2.36-1.93-1.3-.56-2.36-1.47-3.17-2.74-.81-1.26-1.22-2.75-1.22-4.44,0-2.73.86-4.84,2.58-6.34,1.72-1.5,4.17-2.25,7.35-2.25.71,0,1.46.05,2.24.15.78.1,1.37.2,1.76.31h8.7ZM208.83,87.77c0,1.15.52,2.04,1.56,2.66,1.04.62,2.5.93,4.37.93,2.91,0,5.07-.42,6.5-1.25,1.42-.83,2.14-1.94,2.14-3.32,0-1.09-.39-1.87-1.17-2.33s-2.23-.69-4.35-.69h-4.04c-1.53,0-2.75.36-3.65,1.08-.9.72-1.35,1.69-1.35,2.92ZM211.13,66.87c0,1.58.41,2.79,1.22,3.64.81.85,1.97,1.27,3.49,1.27,3.09,0,4.64-1.65,4.64-4.95,0-1.64-.38-2.9-1.15-3.78-.77-.89-1.93-1.33-3.49-1.33s-2.72.44-3.51,1.32c-.79.88-1.19,2.16-1.19,3.84Z"/>
    <path class="cls-5" d="M238.57,83.87h-5.34v-35.36h5.34v35.36Z"/>
    <path class="cls-5" d="M257.19,84.32c-3.91,0-6.96-1.14-9.17-3.42-2.2-2.28-3.31-5.42-3.31-9.42s1.02-7.33,3.07-9.68,4.85-3.52,8.43-3.52c3.32,0,5.94,1.01,7.86,3.02,1.92,2.01,2.89,4.79,2.89,8.32v2.88h-16.75c.08,2.44.73,4.31,1.98,5.62,1.24,1.31,2.99,1.96,5.25,1.96,1.48,0,2.87-.14,4.15-.42,1.28-.28,2.65-.75,4.12-1.4v4.34c-1.3.62-2.62,1.06-3.95,1.32s-2.86.39-4.57.39ZM256.21,62.32c-1.7,0-3.06.54-4.08,1.61-1.02,1.08-1.63,2.64-1.83,4.7h11.41c-.03-2.08-.53-3.65-1.5-4.72-.97-1.07-2.3-1.6-4-1.6Z"/>
    <path class="cls-5" d="M307.68,60.69c0,3.47-1.14,6.13-3.41,7.98-2.27,1.85-5.51,2.77-9.7,2.77h-3.45v12.43h-5.43v-33.22h9.57c4.15,0,7.26.85,9.33,2.54,2.07,1.7,3.1,4.2,3.1,7.5ZM291.11,66.87h2.89c2.79,0,4.83-.48,6.14-1.46,1.3-.97,1.95-2.48,1.95-4.54,0-1.91-.58-3.33-1.75-4.27-1.17-.94-2.98-1.41-5.45-1.41h-3.77v11.68Z"/>
    <path class="cls-5" d="M319.08,83.87h-5.34v-35.36h5.34v35.36Z"/>
    <path class="cls-5" d="M342.44,83.87l-1.07-3.5h-.18c-1.21,1.53-2.43,2.57-3.66,3.12-1.23.55-2.8.83-4.73.83-2.47,0-4.4-.67-5.78-2-1.39-1.33-2.08-3.22-2.08-5.66,0-2.59.96-4.54,2.89-5.86,1.92-1.32,4.85-2.04,8.79-2.16l4.34-.14v-1.34c0-1.61-.38-2.81-1.12-3.6s-1.91-1.19-3.49-1.19c-1.29,0-2.52.19-3.7.57-1.18.38-2.32.83-3.41,1.34l-1.73-3.82c1.36-.71,2.86-1.25,4.48-1.62,1.62-.37,3.15-.56,4.59-.56,3.2,0,5.61.7,7.24,2.09,1.63,1.39,2.44,3.58,2.44,6.57v16.93h-3.82ZM334.49,80.23c1.94,0,3.5-.54,4.67-1.62,1.17-1.08,1.76-2.6,1.76-4.56v-2.18l-3.23.14c-2.51.09-4.34.51-5.49,1.26-1.14.75-1.72,1.9-1.72,3.44,0,1.12.33,1.99,1,2.6.67.61,1.67.92,3,.92Z"/>
    <path class="cls-5" d="M349.89,58.73h5.82l5.11,14.25c.77,2.03,1.29,3.94,1.55,5.73h.18c.14-.83.39-1.84.75-3.03.36-1.19,2.29-6.84,5.77-16.94h5.77l-10.75,28.47c-1.95,5.23-5.21,7.84-9.77,7.84-1.18,0-2.33-.13-3.45-.39v-4.23c.8.18,1.72.27,2.75.27,2.58,0,4.39-1.49,5.43-4.48l.93-2.36-10.09-25.13Z"/>
  </g>
  <g>
    <path class="cls-6" d="M113.06,33.2h1.56c1.33-2.44,2.45-5.17,3.35-8.21.9-3.03,1.48-6.08,1.74-9.13h10.41v17.34h2.61v8.38h-3.17v-5.56h-13.32v5.56h-3.17v-8.38ZM122.47,18.72c-.2,2.09-.72,4.51-1.54,7.26-.83,2.75-1.77,5.16-2.83,7.22h8.73v-14.48h-4.36Z"/>
    <path class="cls-6" d="M149.17,28.37c0,2.49-.64,4.44-1.92,5.83-1.28,1.4-3.06,2.1-5.34,2.1-1.43,0-2.69-.32-3.78-.97-1.09-.64-1.94-1.57-2.52-2.77-.59-1.21-.88-2.6-.88-4.19,0-2.47.63-4.4,1.9-5.79,1.27-1.39,3.06-2.08,5.36-2.08s3.95.71,5.24,2.13c1.29,1.42,1.93,3.34,1.93,5.74ZM138.06,28.37c0,3.52,1.3,5.28,3.9,5.28s3.86-1.76,3.86-5.28-1.3-5.23-3.89-5.23c-1.36,0-2.35.45-2.96,1.35-.61.9-.92,2.19-.92,3.88Z"/>
    <path class="cls-6" d="M159.04,36.3c-2.31,0-4.06-.67-5.26-2.02-1.2-1.35-1.8-3.28-1.8-5.8s.63-4.54,1.88-5.92c1.26-1.38,3.07-2.07,5.44-2.07,1.61,0,3.06.3,4.34.9l-.98,2.61c-1.37-.53-2.5-.8-3.39-.8-2.64,0-3.96,1.75-3.96,5.25,0,1.71.33,3,.99,3.85.66.86,1.62,1.29,2.89,1.29,1.44,0,2.81-.36,4.1-1.08v2.83c-.58.34-1.2.58-1.85.73-.66.15-1.46.22-2.39.22Z"/>
    <path class="cls-6" d="M178.34,20.77v2.54h-4.96v12.71h-3.25v-12.71h-4.96v-2.54h13.18Z"/>
    <path class="cls-6" d="M178.96,20.77h3.53l3.1,8.65c.47,1.23.78,2.39.94,3.47h.11c.08-.5.23-1.12.46-1.84.22-.72,1.39-4.15,3.5-10.28h3.5l-6.52,17.28c-1.19,3.17-3.16,4.76-5.93,4.76-.72,0-1.42-.08-2.1-.24v-2.56c.49.11,1.04.17,1.67.17,1.56,0,2.66-.91,3.3-2.72l.57-1.43-6.12-15.25Z"/>
    <path class="cls-6" d="M209.75,20.77v15.25h-3.25v-12.69h-6.84v12.69h-3.24v-15.25h13.34Z"/>
    <path class="cls-6" d="M217.63,20.77v6.12h7.19v-6.12h3.24v15.25h-3.24v-6.58h-7.19v6.58h-3.24v-15.25h3.24Z"/>
    <path class="cls-6" d="M246.22,28.37c0,2.49-.64,4.44-1.92,5.83-1.28,1.4-3.06,2.1-5.34,2.1-1.43,0-2.69-.32-3.78-.97-1.09-.64-1.94-1.57-2.52-2.77-.59-1.21-.88-2.6-.88-4.19,0-2.47.63-4.4,1.9-5.79,1.27-1.39,3.06-2.08,5.36-2.08s3.95.71,5.24,2.13c1.29,1.42,1.93,3.34,1.93,5.74ZM235.12,28.37c0,3.52,1.3,5.28,3.9,5.28s3.86-1.76,3.86-5.28-1.3-5.23-3.89-5.23c-1.36,0-2.35.45-2.96,1.35-.61.9-.92,2.19-.92,3.88Z"/>
    <path class="cls-6" d="M270.52,24.68c0,1.8-1.05,2.89-3.16,3.27v.11c1.18.14,2.08.51,2.7,1.12.63.61.94,1.39.94,2.36,0,1.44-.55,2.55-1.65,3.33-1.1.78-2.7,1.17-4.79,1.17h-7.28v-15.25h7.25c3.99,0,5.99,1.3,5.99,3.9ZM267.28,24.95c0-.61-.24-1.05-.71-1.32-.47-.27-1.18-.41-2.12-.41h-3.93v3.67h3.45c1.08,0,1.91-.14,2.47-.42.56-.28.84-.79.84-1.52ZM267.68,31.34c0-.74-.29-1.26-.85-1.57-.57-.31-1.43-.46-2.57-.46h-3.74v4.32h3.82c2.22,0,3.34-.76,3.34-2.29Z"/>
  </g>
  <g>
    <path class="cls-4" d="M33.64,14.55c.63.08,1.48.55,2.11.74,15.47,8.4,30.9,16.98,46.29,25.45l.14.3c-4.5,4.35-9,8.7-13.51,13.05l-.35-.09c-.04.13-.1.13-.15,0l-.32.12c-13.07-12.61-26.14-25.21-39.21-37.82l.08-.36c.12-.08.2-.32.51-.49.72-.41,1.52-.57,2.27-.89.69.06,1.49-.09,2.16,0Z"/>
    <path class="cls-1" d="M28.7,15.94l39.46,38.06.11.32c-13.07,12.61-26.14,25.21-39.21,37.82l-.35-.09c-2.23-1.53-2.92-3.02-3.09-5.77.18-22.15-.33-44.36.26-66.47.44-1.92,1.3-2.82,2.83-3.88Z"/>
    <path class="cls-3" d="M82.04,67.25c-15.51,8.54-31,17.19-46.6,25.61-2.61,1.1-4.53.71-6.73-.8l39.46-38.06h.15l.29-.15c4.5,4.35,9,8.7,13.51,13.05l-.08.35Z"/>
    <path class="cls-7" d="M82.04,67.25l-13.72-13.25,13.72-13.25c4.2,2.31,8.81,4.42,12.9,6.91,4.35,2.64,5.75,8.28,1.51,11.73-2.11,1.72-6.79,3.84-9.37,5.27-1.65.91-3.4,1.69-5.04,2.59Z"/>
  </g>
</svg>