<?xml version="1.0" encoding="UTF-8"?>
<svg id="_Слой_1" data-name="Слой 1" xmlns="http://www.w3.org/2000/svg" xmlns:xlink="http://www.w3.org/1999/xlink" viewBox="0 0 748.39 298">
  <defs>
    <style>
      .cls-1 {
        fill: url(#_Безымянный_градиент_23-4);
      }

      .cls-2 {
        fill: url(#_Безымянный_градиент_89-5);
      }

      .cls-3 {
        fill: url(#_Безымянный_градиент_23-2);
      }

      .cls-4 {
        fill: url(#_Безымянный_градиент_23-5);
      }

      .cls-5 {
        fill: url(#_Безымянный_градиент_23);
      }

      .cls-6 {
        fill: url(#_Безымянный_градиент_89);
      }

      .cls-7 {
        fill: url(#_Безымянный_градиент_89-6);
      }

      .cls-8 {
        fill: url(#_Безымянный_градиент_23-6);
      }

      .cls-9 {
        fill: url(#_Безымянный_градиент_89-3);
      }

      .cls-10 {
        fill: url(#_Безымянный_градиент_23-8);
      }

      .cls-11 {
        fill: url(#_Безымянный_градиент_89-2);
      }

      .cls-12 {
        fill: url(#_Безымянный_градиент_89-8);
      }

      .cls-13 {
        fill: url(#_Безымянный_градиент_23-3);
      }

      .cls-14 {
        fill: #232f3a;
      }

      .cls-15 {
        fill: url(#_Безымянный_градиент_89-7);
      }

      .cls-16 {
        fill: url(#_Безымянный_градиент_23-7);
      }

      .cls-17 {
        fill: url(#_Безымянный_градиент_89-4);
      }
    </style>
    <linearGradient id="_Безымянный_градиент_23" data-name="Безымянный градиент 23" x1="459.97" y1="479.24" x2="711.59" y2="154.85" gradientUnits="userSpaceOnUse">
      <stop offset="0" stop-color="#baff00"/>
      <stop offset=".4" stop-color="#00eaff"/>
      <stop offset=".59" stop-color="#54dcf5"/>
      <stop offset="1" stop-color="#baff00"/>
    </linearGradient>
    <linearGradient id="_Безымянный_градиент_23-2" data-name="Безымянный градиент 23" x1="121.54" y1="216.73" x2="373.16" y2="-107.66" xlink:href="#_Безымянный_градиент_23"/>
    <linearGradient id="_Безымянный_градиент_23-3" data-name="Безымянный градиент 23" x1="294.36" y1="350.77" x2="545.97" y2="26.39" xlink:href="#_Безымянный_градиент_23"/>
    <linearGradient id="_Безымянный_градиент_23-4" data-name="Безымянный градиент 23" x1="348.84" y1="393.04" x2="600.46" y2="68.65" xlink:href="#_Безымянный_градиент_23"/>
    <linearGradient id="_Безымянный_градиент_23-5" data-name="Безымянный градиент 23" x1="416.54" y1="445.55" x2="668.15" y2="121.16" xlink:href="#_Безымянный_градиент_23"/>
    <linearGradient id="_Безымянный_градиент_23-6" data-name="Безымянный градиент 23" x1="241.59" y1="309.84" x2="493.2" y2="-14.54" xlink:href="#_Безымянный_градиент_23"/>
    <linearGradient id="_Безымянный_градиент_23-7" data-name="Безымянный градиент 23" x1="69.91" y1="176.68" x2="321.53" y2="-147.7" xlink:href="#_Безымянный_градиент_23"/>
    <linearGradient id="_Безымянный_градиент_23-8" data-name="Безымянный градиент 23" x1="178.84" y1="261.17" x2="430.45" y2="-63.22" xlink:href="#_Безымянный_градиент_23"/>
    <linearGradient id="_Безымянный_градиент_89" data-name="Безымянный градиент 89" x1="697.77" y1="166.46" x2="366.5" y2="534.37" gradientUnits="userSpaceOnUse">
      <stop offset="0" stop-color="#081013"/>
      <stop offset=".17" stop-color="#23292c"/>
      <stop offset=".49" stop-color="#5f6265"/>
      <stop offset="1" stop-color="#081013"/>
    </linearGradient>
    <linearGradient id="_Безымянный_градиент_89-2" data-name="Безымянный градиент 89" x1="414.73" y1="-118.83" x2="82.04" y2="250.67" xlink:href="#_Безымянный_градиент_89"/>
    <linearGradient id="_Безымянный_градиент_89-3" data-name="Безымянный градиент 89" x1="554.2" y1="16.99" x2="221.37" y2="386.64" xlink:href="#_Безымянный_градиент_89"/>
    <linearGradient id="_Безымянный_градиент_89-4" data-name="Безымянный градиент 89" x1="604.86" y1="73.78" x2="273.27" y2="442.06" xlink:href="#_Безымянный_градиент_89"/>
    <linearGradient id="_Безымянный_градиент_89-5" data-name="Безымянный градиент 89" x1="657.44" y1="119.7" x2="326.46" y2="487.29" xlink:href="#_Безымянный_градиент_89"/>
    <linearGradient id="_Безымянный_градиент_89-6" data-name="Безымянный градиент 89" x1="515.22" y1="-15.58" x2="184.17" y2="352.09" xlink:href="#_Безымянный_градиент_89"/>
    <linearGradient id="_Безымянный_градиент_89-7" data-name="Безымянный градиент 89" x1="364.62" y1="-169.81" x2="33.58" y2="197.85" xlink:href="#_Безымянный_градиент_89"/>
    <linearGradient id="_Безымянный_градиент_89-8" data-name="Безымянный градиент 89" x1="450.36" y1="-73.16" x2="126.33" y2="286.71" xlink:href="#_Безымянный_градиент_89"/>
  </defs>
  <g>
    <path class="cls-14" d="M43.13,34.33c0,2.21-1.8,4.03-5.41,5.45-3.61,1.42-8.16,2.13-13.65,2.13H.3V0h23.77c5.53,0,10.09.71,13.68,2.13s5.38,3.24,5.38,5.45v26.75ZM33.9,33.95V7.9c0-1.37-1.07-2.49-3.22-3.33-2.15-.85-4.93-1.27-8.33-1.27h-12.82v35.32h12.29c3.59,0,6.5-.42,8.73-1.25,2.23-.83,3.35-1.97,3.35-3.41Z"/>
    <path class="cls-14" d="M183.23,41.9h-34.13V0h33.73v3.29h-24.5v15.64h22.31v3.35h-22.31v16.33h24.9v3.29Z"/>
    <path class="cls-14" d="M327.91,38.93c0,.87-.68,1.59-2.03,2.14-1.35.55-3.11.83-5.28.83h-26.16c-2.17,0-3.95-.28-5.35-.83-1.39-.55-2.09-1.27-2.09-2.14v-10.63h9.23v10.31h22.45v-9.99l-28.69-13.98c-1.99-.96-2.99-2.03-2.99-3.19V2.97c0-.87.7-1.59,2.09-2.14s3.18-.83,5.35-.83h26.16c2.17,0,3.93.28,5.28.83,1.35.55,2.03,1.27,2.03,2.14v9.75h-9.23V3.29h-22.45v8.84l28.82,13.98c1.9.93,2.86,1.97,2.86,3.13v9.69Z"/>
    <path class="cls-14" d="M443.76,41.9h-9.23V0h9.23v41.9Z"/>
    <path class="cls-14" d="M592.89,38.93c0,.87-.69,1.59-2.06,2.14s-3.14.83-5.31.83h-27.29c-2.17,0-3.94-.28-5.31-.83-1.37-.55-2.06-1.27-2.06-2.14V2.97c0-.87.69-1.59,2.06-2.14,1.37-.55,3.14-.83,5.31-.83h27.29c2.17,0,3.94.28,5.31.83,1.37.55,2.06,1.27,2.06,2.14v9.75h-9.3V3.29h-23.51v35.32h23.51v-14.49h-11.09v-3.21h20.39v18.02Z"/>
    <path class="cls-14" d="M741.95,41.9h-6.38l-27.76-30.82v30.82h-8.7V0h6.91l27.23,30.28V0h8.7v41.9Z"/>
  </g>
  <g>
    <path class="cls-5" d="M562.05,298v-16.39h61.58v-9.25h-61.58v-75.06h149.47l26.03,25.77v48.63l-26.3,26.3h-149.2ZM691.3,214.48h-83.26v35.95h83.26v-35.95Z"/>
    <path class="cls-3" d="M157.92,197.3v27.75h24.05v55.37l-17.58,17.58H7v-18.37l10.04-10.04v-31.06H7v-15.73l25.51-25.51h125.42ZM140.74,214.48H52.99v10.57h6.34v13.48h13.74v-13.48h67.66v-10.57ZM164.79,250.95H52.99v15.07h111.8v-15.07Z"/>
    <path class="cls-13" d="M526.11,81.26v17.18h-103.08v10.57h65.29v14.8h-65.29v10.31h129.25v21.54l-26.3,26.3h-130.97v-20.22l5.02-5.42h-5.29v-32.64c-2.19-1.91-4.14-4.51-6.34-6.34-.27-.22-.34-.5-.79-.4v5.15l2.38,2.38v57.49h-12.95v-75.2l25.51-25.51h123.57Z"/>
    <polygon class="cls-1" points="552.28 197.3 552.28 241.31 534.7 258.62 507.34 258.62 520.82 272.36 511.31 272.36 511.31 281.61 530.21 281.61 546.46 298 500.6 298 460.96 258.62 422.76 258.62 422.76 298 402.28 298 376.77 272.49 376.77 226.9 521.35 226.9 521.35 214.48 422.76 214.48 422.76 218.97 376.77 218.97 376.77 197.3 552.28 197.3"/>
    <path class="cls-4" d="M719.58,81v9.65l-43.61,43.48h24.45l47.97,47.58h-67.27l-35.15-34.62-14.27,13.74h-39.65l-5.95,6.08h39.38l-14.93,14.8h-67.27c5.87-6.06,11.84-12.04,17.84-17.97.04-.04.22.04.26,0,9.97-9.86,19.78-20.02,29.87-29.6h24.45c-5.87-6.06-11.84-12.04-17.84-17.97-.04-.04-.22.04-.26,0l-25.51-25.24v-9.91h43.74l30.13,29.6,29.87-29.6h43.74Z"/>
    <polygon class="cls-8" points="366.99 197.3 366.99 218.97 290.21 218.97 272.63 236.68 321 236.68 321 226.9 366.99 226.9 366.99 272.49 341.49 298 321 298 321 250.42 258.49 250.42 210.39 298 191.75 298 191.75 249.76 244.75 197.3 366.99 197.3"/>
    <path class="cls-16" d="M182.24,81v75.2l-25.51,25.51h-20.48v-47.58h-62.51l-48.1,47.58H7v-48.24l52.99-52.47h122.24ZM64.88,91.84l-49.69,49.43,1.19-.26c4.08-1.39,8.35-2.31,12.42-3.7l36.08-35.81v-9.65ZM136.25,102.67h-30.79l-17.58,17.71h48.37v-17.71Z"/>
    <path class="cls-10" d="M238.01,81v53.13h129.25v21.54l-26.3,26.03h-98.46l11.37-11.63h-11.5c-3.28,3.58-7.23,6.83-10.44,10.44-.04.05.05.21,0,.26-.14.17-.86.93-.93.93h-12.03l11.23-11.37.4-.79h-11.76l-12.16,12.16h-14.67v-74.93l25.51-25.77h20.48Z"/>
  </g>
  <g>
    <path class="cls-6" d="M555.05,291v-16.39h61.58v-9.25h-61.58v-75.06h149.47l26.03,25.77v48.63l-26.3,26.3h-149.2ZM684.3,207.48h-83.26v35.95h83.26v-35.95Z"/>
    <path class="cls-11" d="M150.92,190.3v27.75h24.05v55.37l-17.58,17.58H0v-18.37l10.04-10.04v-31.06H0v-15.73l25.51-25.51h125.42ZM133.74,207.48H45.99v10.57h6.34v13.48h13.74v-13.48h67.66v-10.57ZM157.79,243.95H45.99v15.07h111.8v-15.07Z"/>
    <path class="cls-9" d="M519.11,74.26v17.18h-103.08v10.57h65.29v14.8h-65.29v10.31h129.25v21.54l-26.3,26.3h-130.97v-20.22l5.02-5.42h-5.29v-32.64c-2.19-1.91-4.14-4.51-6.34-6.34-.27-.22-.34-.5-.79-.4v5.15l2.38,2.38v57.49h-12.95v-75.2l25.51-25.51h123.57Z"/>
    <polygon class="cls-17" points="545.28 190.3 545.28 234.31 527.7 251.62 500.34 251.62 513.82 265.36 504.31 265.36 504.31 274.61 523.21 274.61 539.46 291 493.6 291 453.96 251.62 415.76 251.62 415.76 291 395.28 291 369.77 265.49 369.77 219.9 514.35 219.9 514.35 207.48 415.76 207.48 415.76 211.97 369.77 211.97 369.77 190.3 545.28 190.3"/>
    <path class="cls-2" d="M712.58,74v9.65l-43.61,43.48h24.45l47.97,47.58h-67.27l-35.15-34.62-14.27,13.74h-39.65l-5.95,6.08h39.38l-14.93,14.8h-67.27c5.87-6.06,11.71-11.77,17.71-17.7.04-.04-.04.04,0,0,9.97-9.86,20.18-20.29,30.26-29.87h24.45c-5.87-6.06-11.84-12.04-17.84-17.97-.04-.04-.22.04-.26,0l-25.51-25.24v-9.91h43.74l30.13,29.6,29.87-29.6h43.74Z"/>
    <polygon class="cls-7" points="359.99 190.3 359.99 211.97 283.21 211.97 265.63 229.68 314 229.68 314 219.9 359.99 219.9 359.99 265.49 334.49 291 314 291 314 243.42 251.49 243.42 203.39 291 184.75 291 184.75 242.76 237.75 190.3 359.99 190.3"/>
    <path class="cls-15" d="M175.24,74v75.2l-25.51,25.51h-20.48v-47.58h-62.51l-48.1,47.58H0v-48.24l52.99-52.47h122.24ZM57.88,84.84l-49.69,49.43,1.19-.26c4.08-1.39,8.35-2.31,12.42-3.7l36.08-35.81v-9.65ZM129.25,95.67h-30.79l-17.58,17.71h48.37v-17.71Z"/>
    <path class="cls-12" d="M231.01,74v53.13h129.25v21.54l-26.3,26.03h-98.46l11.37-11.63h-11.5c-3.28,3.58-7.23,6.83-10.44,10.44-.04.05.05.21,0,.26-.14.17-.86.93-.93.93h-12.03l11.23-11.37.4-.79h-11.76l-12.16,12.16h-14.67v-74.93l25.51-25.77h20.48Z"/>
  </g>
</svg>