<?xml version="1.0" encoding="UTF-8"?>
<svg id="_Слой_1" data-name="Слой 1" xmlns="http://www.w3.org/2000/svg" xmlns:xlink="http://www.w3.org/1999/xlink" viewBox="0 0 112.17 112.25">
  <defs>
    <style>
      .cls-1 {
        fill: #0e1222;
      }

      .cls-2 {
        fill: #101627;
      }

      .cls-3 {
        fill: #12182a;
      }

      .cls-4 {
        fill: #131a2e;
      }

      .cls-5 {
        fill: #151d32;
      }

      .cls-6 {
        fill: #131b2e;
      }

      .cls-7 {
        fill: #fff;
      }

      .cls-8 {
        fill: #0b111e;
      }

      .cls-9 {
        fill: none;
      }

      .cls-10 {
        fill: #141c30;
      }

      .cls-11 {
        fill: #131a2d;
      }

      .cls-12 {
        fill: #151d33;
      }

      .cls-13 {
        fill: #13192c;
      }

      .cls-14 {
        fill: #121a2d;
      }

      .cls-15 {
        fill: #12192c;
      }

      .cls-16 {
        fill: #161d33;
      }

      .cls-17 {
        fill: #e52344;
      }

      .cls-18 {
        fill: #0b101d;
      }

      .cls-19 {
        fill: #11182a;
      }

      .cls-20 {
        fill: #101626;
      }

      .cls-21 {
        fill: #0f1526;
      }

      .cls-22 {
        fill: #172037;
      }

      .cls-23 {
        fill: #0e1322;
      }

      .cls-24 {
        clip-path: url(#clippath);
      }

      .cls-25 {
        fill: #0a101d;
      }
    </style>
    <clipPath id="clippath">
      <rect class="cls-9" x=".66" y=".95" width="110.1" height="110.1" rx="19.67" ry="19.67"/>
    </clipPath>
  </defs>
  <g class="cls-24">
    <g>
      <path class="cls-11" d="M89.68.15c.26.08,1.75.14,1.82.08l.14-.08c.12-.04.34-.04.38.08.21.13.49.18.84.15,10.92,1.29,19.11,11.4,19.1,22.23v67.01c-.22,12.59-10.28,22.73-22.98,22.44H23.13c-8.86.1-17.33-4.89-20.86-13.1-.12.15-.25.24-.39.28C.86,96.9.17,94.46,0,91.9V20.5C.66,11.19,6.99,3.4,15.95.87c.84-.24,1.93-.51,2.78-.56l.53-.08s.05,0,.08,0l1.16-.11c22.47-.06,44.94-.08,67.4-.05l1.77.09Z"/>
      <path class="cls-11" d="M92.83.23s.05,0,.08,0c.17.05.34.08.53.08,10.27,1.43,18.07,9.94,18.74,20.27v71.17c-.45,9.79-8.49,18.95-18.28,20.2-.67.13-1.32.18-1.96.15-.12-.03-.22,0-.3.08-23.33.07-47.74.07-71.09,0-.08-.08-.18-.11-.3-.08-.46.04-.94.01-1.43-.08-.02,0-.05,0-.08,0l-.45-.08c-2.08-.09-6.29-1.74-7.97-3.01l-.38-.23c-.08-.05-.15-.1-.23-.15l-.3-.23c-.09-.05-.15-.1-.23-.15l-.6-.45c-1.8-1.16-3.28-2.93-4.51-4.66-.1-.08-.18-.18-.23-.3-.83-1.22-1.36-2.19-1.96-3.54-.04-.14.42-.55.45-.53,1.31,3.26,3.67,6.19,6.4,8.38,4.08,3.28,9.18,4.76,14.39,4.86h65.83c13.01-.13,22.23-9.31,22.83-22.23V22.61c-.02-11.05-8.43-21.15-19.6-22.15-.23-.02-.2.05-.19-.22.25-.07.52-.07.83,0Z"/>
      <path class="cls-6" d="M92.83.23c-.26-.02-.56.01-.83,0-.05,0-.2-.07-.38-.08-.59.16-1.34.1-1.96,0-23.05-.26-46.12.2-69.18,0-.39.07-.77.07-1.16.08.92-.25,1.89-.06,2.82-.23h67.86c.93.16,1.9-.02,2.82.23Z"/>
      <path class="cls-4" d="M93.89,111.94l-2.14.3H20.42s-1.61-.23-1.61-.23c.48.02.95.09,1.43.08.12-.02.22-.03.3.08h71.09c.08-.1.18-.09.3-.08.59.01,1.36-.08,1.96-.15Z"/>
      <path class="cls-6" d="M93.44.3c-.16-.02-.42.07-.53-.08.22.02.36.05.53.08Z"/>
      <path class="cls-6" d="M19.26.23c-.11.14-.36.07-.53.08.1-.13.36-.07.53-.08Z"/>
      <path class="cls-11" d="M10.31,108.93c-.21.03-.29-.17-.38-.23.21-.02.27.15.38.23Z"/>
      <path class="cls-11" d="M4.07,103.07c-.13-.05-.21-.16-.23-.3.05.08.15.2.23.3Z"/>
      <path class="cls-11" d="M9.18,108.18c-.2-.12-.48-.21-.6-.45.19.12.48.21.6.45Z"/>
      <path class="cls-11" d="M9.71,108.56c-.08-.06-.26-.04-.3-.23.1.06.25.04.3.23Z"/>
      <path class="cls-4" d="M18.74,112.02c-.14,0-.37.05-.45-.08.14,0,.37-.05.45.08Z"/>
      <path class="cls-6" d="M106.38,8.65c.15.1.25.26.32.47,1.85,2.36,3.28,5.4,3.97,8.45.25,1.08.52,2.43.52,3.52.04,7.02.08,14.04.08,21.07.01,14.92,0,29.85-.02,44.77,0,3.45-.02,6.08-1.03,9.31-2.21,7.05-7.76,12.44-14.9,14.37-1.02.27-2.46.64-3.5.66-8.14.11-16.28.16-24.42.18-15.03.02-30.07,0-45.1-.02-1.4,0-2.97-.25-4.34-.55-10.15-2.22-16.92-10.8-17.13-21.14-.03-22.35-.01-44.7.05-67.05.01-3.06.62-6.12,1.81-8.94.09-.22,1.68-3.45,1.86-3.55.03-.02.07-.03.11-.03.24-.85,2.98-3.59,3.76-4.25C12.83,2.16,18.2.58,23.96.68h64.18c5.62-.09,11.01,1.42,15.34,5.05.37.31,2.87,2.7,2.9,2.93Z"/>
      <path class="cls-4" d="M4.67,10.16c-.18.63-.43.86-.77,1.45-1.93,3.45-2.78,7.12-2.92,11.07v66.81c.22,12.23,9.09,21.3,21.33,21.78,23.17-.11,46.36.2,69.51-.15,11.18-1.21,19.2-10.34,19.3-21.55-.06-22.82.09-45.66-.08-68.46-.31-4.14-1.59-7.74-3.9-11.15-.33-.49-.71-.73-.77-1.3.17-.11.28.08.37.19,3.08,3.44,4.55,9.17,4.74,13.69-.1,22.79.2,45.61-.15,68.38-.44,11.79-10.6,20.92-22.3,20.73H23.13c-12.34.02-21.87-9.01-22.46-21.33.11-23.44-.2-46.92.15-70.34.36-2.48.99-4.99,2.06-7.26.28-.6,1.07-2.05,1.48-2.51.12-.13.13-.16.29-.05Z"/>
      <path class="cls-11" d="M91.63.15c.09.42-.5.15-.71.15-.39-.01-.95.11-1.24-.15.65,0,1.31-.02,1.96,0Z"/>
      <path class="cls-11" d="M20.54,112.17l-.3-.08c.08,0,.22-.18.3.08Z"/>
      <path class="cls-11" d="M91.93,112.09l-.3.08c.08-.25.22-.08.3-.08Z"/>
      <path class="cls-16" d="M2.03,21.22c.13-.05.26-.01.38.13.41-7.72,5.24-14.48,12.3-17.53,3.04-1.31,6.21-1.5,9.48-1.53,15.85-.14,31.82-.21,47.72-.07,6.61-.1,13.15-.06,19.6.13,10.27.98,18.09,9.64,18.25,19.91v67.48c.04,10.58-8.71,19.77-19.3,20.15l-68.03.02c-8.24-.07-15.79-5.24-18.68-12.97-.15.17-.3.23-.44.18-.91-2.12-1.13-4.45-1.36-6.73V21.85s.08-.64.08-.64Z"/>
      <path class="cls-5" d="M3.31,97.12c.06-.07.47-.43.53-.38,1.67,4.64,5.2,8.5,9.55,10.8,2.77,1.47,5.87,2.07,8.99,2.22h67.26c11.07,0,20.17-9.38,19.97-20.42V22.68c.05-10.46-7.88-19.31-18.32-20.2-1.85-.16-3.74.01-5.56-.15-19.95.17-39.94-.25-59.88.08-5.46.09-9,0-13.8,2.97C6.42,8.88,2.77,14.99,2.56,21.67c-.14-.13-.42-.32-.53-.45-.31-.38-.06-1.54.01-2.06C3.52,8.96,12.58,1.54,22.83,1.58h66.43c11.57.06,20.58,8.7,21.1,20.27v68.39c-.52,12-10.06,20.63-22,20.35H23.73c-8.64.21-16.45-4.33-20.1-12.17-.07-.16-.45-.97-.46-1.04s.08-.19.14-.25Z"/>
      <path class="cls-22" d="M23.31,3.26l65.28-.03c11.27-.13,19.67,7.8,20.12,19.07v67.49c-.24,10.59-8.1,18.6-18.69,19.07H22.16c-10.73-.47-18.52-8.51-18.77-19.22V22.61C3.87,11.21,11.82,3.26,23.31,3.26Z"/>
      <path class="cls-7" d="M87.19,35.89c.76.8,1.12,2.04,1.41,3.11.14.5.28,1.06.34,1.57,0,.06-.03.13-.07.19.66,5.44.74,11.18-.1,16.64-.04.24-.09.49-.15.75.02.06.05.11.06.17.09.47-1.15,3.91-1.55,4.18-.05.03-.11.06-.16.08-.14.72-.77,1.39-1.28,1.92-2.22,2.31-5.41,3.52-8.53,3.99l.54.7-.06.16.26.37c.2.04.52.3.41.53.18.05.23.13.15.23.09.1.16.2.23.3.38.31.69.68.94,1.1l-.03.11c3.53,4.79,7.08,9.6,10.59,14.42.08.12.82,1.1.77,1.15h-16.4c-.66-.86-1.31-1.74-1.92-2.64-2.43-3.6-4.86-7.21-7.27-10.83-.6-.91-1.16-1.84-1.71-2.78-.75-.74-1.53-1.76-1.81-2.78l-.07.15h-27.97l-.09-.15c.12.58.23,1.15.03,1.72l-.03,1.14c.14,5.39.14,10.78,0,16.17-4.87.05-9.77.06-14.7.04l-.08-56.76c-.2-.19-.15-.57,0-.77-.02-.36-.01-.71.03-1.04.09,0,.27-.13.41-.08h53.27c5.8.07,11.52,1.6,14.55,6.92Z"/>
      <path class="cls-17" d="M100.81,19.11c.15-.04.2.05.08.15l.23.6c.33.3.42.98.46,1.44s.01.8-.09,1.27c.17.26.09,1.3-.03,1.57-.04.08-.12.12-.19.16.03.04.06.09.07.13.05.37-.79,1.94-1.08,2.26-.15.06-.29.19-.42.39l-.06.26c-2.32,2.51-5.7,3.33-8.88,1.94-.38-.17-1.45-.67-1.61-.97-.03-.05-.05-.11-.06-.17-.39-.3-.73-.67-1.05-1.05-.07.03-.09,0-.08-.08l-.23-.32c-.18-.06-.46-.21-.3-.44-.34-.56-.58-1.18-.8-1.79-.27-.33-.41-.88-.26-1.29l-.04-1.07c-.17-.27-.16-.49.04-.67.32-1.88,1.14-3.56,2.59-4.82,3.92-3.39,9.32-1.86,11.7,2.48Z"/>
      <path class="cls-12" d="M18.96,29.04l.07,58.53h14.67c.07,0,.06.03,0,.07-.02.07-.05.06-.08,0-.21.07-.33.07-.38,0-4.59.15-9.18.15-13.77,0,.03.13-.12.13-.45,0-.02.07-.05.06-.08,0-.07-.02-.07-.04,0-.08-.06-18.93-.08-37.86-.08-56.8-.59.62-.65,1.43-.68,2.26v54.41c-.05,1.46.43,2.79,2.08,2.91.88.07,1.81.08,2.72.09,2.37.02,4.74.04,7.11,0,.81-.01,1.61-.04,2.42-.08,1.3-.06,2.17-1.61,1.93-2.78-.08-.75-.09-1.52-.03-2.3-.11-4-.14-7.99-.09-11.98l.12-.32.1-.21c-.04-.81.53-1.32,1.31-1.37h24.06c.86,0,1.52.34,2.04,1.01.88,1.14,1.73,2.32,2.53,3.54,2.71,4.23,5.49,8.42,8.36,12.56,1.37,1.96,2.7,1.97,5.06,2,3.84.04,7.72-.04,11.56-.17,1.31-.04,1.97-1.4,1.29-2.5l.04-.11c.06-.03.14-.06.23-.08.05,0,.11-.12.23.03.47.61.52,1.69.06,2.32-.74,1.03-2.09.82-3.19.88-3.54.16-7.52.22-11.06.08-2.1-.08-3.1-.16-4.43-1.89-3.65-5.1-6.88-10.7-10.59-15.74-.59-.79-.89-1.31-1.98-1.41h-24.15c-.65.12-.88.55-.94,1.17-.23,4.83.31,9.95,0,14.75-.16,2.55-1.11,2.9-3.43,3.04-3.13.2-6.93.21-10.08.07-1.44-.06-3.02-.12-3.56-1.71-.16-.46-.16-.94-.25-1.41v-55.07c.08-.9.2-1.91.94-2.52.08-.07.25-.05.27-.12.07-.26-.06-.85,0-1.16.06-.02.07.08.07.08Z"/>
      <path class="cls-19" d="M18.96,87.57s0,.05,0,.08l.17.12c.15,1.4.75,1.62,2.07,1.66,3.52.1,7.05.17,10.58.03,1.08-.04,1.69-.58,1.76-1.66l.16-.14s0-.05,0-.08c.07-5.35.1-10.74.08-16.17-.06-.05-.05-.1,0-.15.15-.67,1.14-.98,1.76-.98,6.3-.03,12.61-.03,18.91,0,2.19.01,4.39.06,6.58.12.63.02,1.54.89,1.89,1.4,2.47,3.58,4.89,7.19,7.23,10.86,1.2,1.84,2.48,3.69,3.76,5.4.47.63,1.16,1.09,1.96,1.18,1.33.15,2.74.16,4.11.15,2.76-.02,5.53-.04,8.29-.1.66-.01,1.53-.26,1.26-1.08-.21-.52-.11-.53.37-.55.15,0,.3,0,.45,0,.03.21-.03.29-.15.08l-.06.15c.41.95.15,1.68-.93,1.9-4.05.24-8.26.28-12.37.15-1.26-.04-2.22-.18-3.05-1.16-.55-.64-1.1-1.45-1.59-2.17-3.17-4.74-6.37-9.46-9.58-14.17-.54-.8-1.14-1.45-2.16-1.53-8.18-.05-16.72-.08-24.91.02-.96-.03-1.48.67-1.52,1.58-.17,3.66-.08,7.32.04,10.99.03,1.41,0,2.85-.08,4.24s-.85,2.04-2.19,2.14c-3.58.13-7.16.14-10.74.02-1.8-.12-2.28-.88-2.48-2.58-.01-18.07,0-36.13.04-54.2,0-.19.03-.43.27-.39,0,18.62.02,36.9.08,54.84Z"/>
      <path class="cls-23" d="M33.78,70.57c-.06-.11-.07-.64,0-.75.03-.05.95-.36,1.01-.36,8.35-.12,16.7-.13,25.06-.1,1.89,0,2.66.59,3.72,2,0,0-.07.02.07-.04,3.67,5.39,7.32,10.8,10.91,16.25.01.02-.01.06,0,.08l.23.09c.58.59,1.37.83,2.37.72,3.48-.03,6.97-.05,10.45-.05.51-.07.72-.12.65-.67.27-.04.55-.06.82-.09h.38c.05.11-.02.2-.2.27.15.78-.28,1.21-1.04,1.23-2.74-.08-5.47-.05-8.21.1-1.4.03-2.8.02-4.18-.13-.76-.08-1.42-.63-1.89-1.19-.56-.68-1.14-1.51-1.64-2.27-2.07-3.13-4.12-6.27-6.13-9.44-1.03-1.58-2.14-3.15-3.26-4.61-.88-1.13-1.75-1.45-3.14-1.48-5.98-.13-11.99-.11-17.99.05-1.85.01-3.69,0-5.54-.07-.79,0-1.64.15-2.29.56l-.16-.11Z"/>
      <path class="cls-21" d="M33.78,70.57c.33-.1.55-.31.9-.42.52-.15,1.02-.08,1.54-.19,7.68.27,15.6-.35,23.25,0,.52.02,1.26.07,1.75.21.94.26,1.66,1.16,2.23,1.91,3.51,4.68,6.47,10.08,9.91,14.84.74,1.02,1.34,1.97,2.73,2.09,3.87.33,8.2-.25,12.11,0,.92-.09,1-.43.87-1.28.15.06.31-.07.38-.08.14-.02.3,0,.45,0l-.38.08c.55,1.27-.09,1.58-1.25,1.7-3.8-.11-7.79.24-11.58.03-1.91-.1-2.39-.57-3.45-2.04-3.63-5.03-6.77-10.44-10.39-15.48-.47-.65-1.03-1.21-1.83-1.4-8.47-.26-16.98-.03-25.47-.11-.78.06-1.23.26-1.76.83-.06-.21-.06-.46,0-.68Z"/>
      <path class="cls-5" d="M86.52,21.44c-.03.57.02,1.16,0,1.73-.15-.03-.22-.15-.2-.37-1.08,5.3,3.47,10.03,8.82,9.25,4.47-.66,7.02-4.43,6.64-8.81-.02-.2-.07-.75-.29-.67.05-.92-.13-1.83-.38-2.71l-.23-.6s-.05-.1-.08-.15c-.02-.34.24-.03.3.04.61.69,1.17,2.08,1.39,2.97,1.65,6.5-4.34,12.38-10.8,10.65-6.03-1.62-8.55-9.03-4.55-13.88l-.5,1.53c-.11.34-.12.67-.14,1.03Z"/>
      <path class="cls-5" d="M87.19,35.89c-.03-.29.13-.07.19,0,3.59,4.38,3.38,12.34,3.19,17.71-.23,6.93-1.27,13.2-8.07,16.53-.68.33-1.51.53-2.16.85-.29.15-.64.39-.67.75,0,.1.2.47-.08.27-.29-.4-.71-.73-.9-1.2.19.01.37-.06.53-.21.79-.38,1.6-.68,2.43-.96,7.63-3.04,8.15-11.19,8.2-18.32.02-2.81.03-5.66-.49-8.42.1.36.08.63-.06.82l.17,3.03-.09.43c.06,1.63.06,3.26,0,4.89.22.09.15.48-.08.53.05.37.08.76,0,1.13.18.14.14.26-.08.3,0,1.09-.08,2.17-.25,3.24l-.13.14c-.02.07-.05.06-.08,0,.68-3.87.6-8.08.45-12-.12-3.28-.37-6.61-2.03-9.52Z"/>
      <path class="cls-8" d="M89.07,87.64c-.1.17-.63.02-.68.07-.03.03.06.38-.07.57-.11.15-.53.24-.72.26-3.68-.19-7.63.26-11.29,0-.77-.05-1.37-.22-1.76-.91h14.52Z"/>
      <path class="cls-4" d="M90.2,87.72c.06,0,.13,0,.15-.08.22,0,.45,0,.68,0-.04.1-.14.07-.23.08-.02.15-.09.14-.15,0l-.09.15c.56,1.25.07,2.08-1.27,2.28-4.09.2-8.36.22-12.51.11-1.76-.05-2.69-.35-3.74-1.84s-2.16-3.08-3.21-4.65c-2.45-3.84-4.99-7.62-7.6-11.35-.52-.74-1.25-1.18-2.16-1.21h-24.22c-.89.03-1.46.55-1.49,1.45-.12,3.56-.06,7.11.07,10.67.02,1.5-.04,3-.1,4.49s-.84,2.24-2.34,2.38c-1.04.1-2.15.13-3.23.13-2.81,0-5.68-.05-8.45-.17-1.19-.17-1.78-.82-1.88-2.03,0-.06.07-.07.16-.03.06-.02.13-.03.14,0,.43,1.2.75,1.71,2.16,1.77,3.6.16,7.23.13,10.83,0,1.61-.06,2.26-.94,2.3-2.5.08-3.21.03-6.42-.09-9.63-.02-1.7.02-3.37.08-5.03.02-.62.33-1.75,1.11-1.76,8.27-.14,16.54-.12,24.81-.09.9,0,1.68.22,2.26,1,1.17,1.57,2.28,3.17,3.36,4.8,2.48,3.82,5.03,7.6,7.65,11.32.79,1.42,1.88,1.87,3.36,1.92,4.23.16,8.45.07,12.67-.14,1.03-.05,1.35-1.16.89-1.97l.08-.08Z"/>
      <path class="cls-22" d="M34.46,55.52c.7.01.83-.01.38-.08l-.15-.05v-9.3l.15-.09c-.14-.04-.13-.1-.11-.22.09-.45.99-.9,1.43-.88h32.96c3.08.16,4.23.42,4.42,3.8.11,1.93.12,4.04-.24,5.93l.06.13c-.87.68-1.9.7-2.97.83h-36.49s-.18-.08-.18-.08c.02-.07.05-.06.08,0,.07-.18.3-.18.68,0Z"/>
      <path class="cls-25" d="M74.4,44.69c.12.47-.16.43-.45.18-1.2-1.36-3.43-1.56-5.2-1.59-8.35-.15-16.78-.09-25.17.05-2.4,0-4.8,0-7.2-.07-.85.03-1.68.18-2.47.46.08.43.03.83-.13,1.2.14,1.88.17,3.76.09,5.66.07,1.66.04,3.31-.09,4.95h-.08v-13.62s36.6,0,36.6,0c2.11.24,3.6.49,4.1,2.78Z"/>
      <path class="cls-10" d="M34.46,55.52l-.41-.06c-.26-2.78-.22-5.8-.12-8.64.06-1.83.33-2.52,2.22-2.66h32.98c3.61.22,5.03.78,5.21,4.75,0,1.47-.03,2.95-.13,4.4l.06.1c-.21.64-.35.92-.9,1.35l-.3.04c.1-.16.16-.38.19-.56.24-1.32.26-5.63,0-6.93-.46-2.28-2.25-2.03-4.14-2.26h-32.88c-.49-.04-1.39.41-1.39.94v9.44c.41.01.83-.02,1.24,0,.09,0,.28-.06.26.07-.63,0-1.25,0-1.88,0Z"/>
      <path class="cls-2" d="M33.78,44.91c0-.42-.01-.85.01-1.27.81-.47,1.68-.42,2.58-.54,10.54.26,21.23-.34,31.75,0,1.77.06,4.03.1,5.49,1.21.21.16.39.47.63.57.23.09.15-.05.16-.2.11.49.16.67.15,1.2.17,1.51-.37.99-.74-.08-.88-1.55-3.31-1.81-4.94-1.81-11.2,0-22.4.03-33.59.1-.48,0-1.03.44-1.31.81h-.19Z"/>
      <path class="cls-18" d="M33.71,71.39c0-.95,0-1.91,0-2.86h28.14c.55.97,1.18,1.87,1.81,2.78.03.14-.03.23-.16.1-.3-.3-.5-.7-.86-1.01-.83-.72-1.72-.82-2.78-.9-8.34.07-16.7-.12-25.03.1l-.99.35c-.1.07-.04.47-.05.61,0,.22,0,.45,0,.68,0,.05,0,.1,0,.15-.02.07-.05.06-.08,0Z"/>
      <path class="cls-15" d="M33.78,44.91c.48-.57.72-.82,1.49-.96,11.19-.22,22.41-.03,33.61-.1,1.66.16,3.72.11,4.85,1.55.35.45.43.92.72,1.39.12-.29.11-.6.11-.9.12.08.07.29.08.41.02,1.76.2,4.52-.15,6.13l-.08.45c-.06.18-.1.37-.15.53-.23.04-.15-.11-.15-.26-.07-2.02.47-5.48-.59-7.24-.88-1.46-2.91-1.45-4.41-1.61h-32.96c-.69.1-1.49.11-1.8.83-.17.4-.24,1.09-.27,1.54-.13,2.34-.16,5.73,0,8.06.01.19.04.49.07.67.02.1.27,0,.31.12h-.68c.03-3.53-.04-7.07,0-10.61Z"/>
      <path class="cls-2" d="M78.32,70.27c-.24-.27-.54-.54-.68-.9.12-.09.26-.03.42.18l.78-.37c3.57-.92,6.77-3,8.19-6.53.06.03.04.01-.06-.06.78-1.32,1.27-2.96,1.66-4.44.03-.26.1-.53.23-.75.23-1.11.26-2.27.38-3.39.2-.03.23.08.24.26-.25,4.47-.78,9.47-4.23,12.69-1.7,1.59-3.78,2.47-5.98,3.15-.4.29-.71.34-.94.14Z"/>
      <path class="cls-18" d="M77.64,69.36c-.1-.11-.78-.88-.68-.98,3.87-.54,7.94-2.31,10-5.79.32-.23.04.37.01.43-1.18,2.84-3.55,4.68-6.37,5.74-.86.32-1.8.46-2.57.97l-.1-.03c-.06-.17-.2-.24-.3-.34Z"/>
      <path class="cls-4" d="M78.69,70.79c-.1-.09-.23-.12-.23-.3.12-.08.2-.06.29.03.87-.49,1.78-.87,2.75-1.15,5.96-2.59,7.48-7.55,7.9-13.6.27-3.98.2-8.04-.1-12.06-.02-.21-.05-.48-.08-.71-.08-.7-.29-1.58-.3-2.26,0-.21.03-.21.08,0,.24,1.03.52,1.95.66,3.02.46,3.37.37,7.19.23,10.59-.27,6.59-1.43,12.33-7.94,15.3-.84.38-1.99.64-2.73,1.11-.32.2-.13.38-.53.03Z"/>
      <path class="cls-15" d="M78.47,70.49c-.13-.12-.12-.19-.15-.23.26.11.61-.18.88-.28.76-.28,1.52-.49,2.27-.81,3.57-1.52,5.74-3.96,6.81-7.71.63-2.21.87-4.54,1.02-6.81.01-.18.05-.5-.08-.64.01-.1.07-.2.08-.3.08-.37.05-.76,0-1.13.01-.19.06-.35.08-.53.07-1.66.07-3.29,0-4.89-.01-1.16-.05-2.31-.08-3.46.34,3.07.46,6.08.38,9.22-.17,6.6-.96,13.3-7.63,16.37-1.1.51-2.35.72-3.32,1.41-.07-.09-.19-.15-.26-.22Z"/>
      <path class="cls-1" d="M33.71,87.57c.29-5.2-.02-10.91,0-16.17h.08c-.06,5.33.04,10.66,0,15.99l-.08.18Z"/>
      <path class="cls-4" d="M88.85,57.4c-.05.25-.16.52-.23.75-.06-.26.11-.53.15-.75h.08Z"/>
      <path class="cls-10" d="M74.4,52.89c-.07-.19.05-.34.08-.45.05.2-.03.31-.08.45Z"/>
      <path class="cls-13" d="M86.52,23.17c.2,1.1.56,2.09,1.05,3.08-.22-.03-.38-.2-.48-.51-.32-.74-.42-.98-.21.08,1.1,5.56,8.11,7.7,12.16,3.76,1.34-1.3,2.5-3.4,2.23-5.27.15-.55.15-1.17.23-1.73.02-.12.15-.32.08-.53.13-.19.35,1.08.37,1.18.53,3.81-1.81,7.59-5.5,8.7-6.23,1.88-11.93-3.75-10.06-9.95.13-.02.07.17.07.26.01.38.01.58.08.94Z"/>
      <path class="cls-20" d="M101.26,24.3c.2-.07.22.39.22.48-.06,2.42-1.84,4.97-3.93,6.08-4.95,2.63-11-.89-10.96-6.48.13.02.13.15.17.24.28.64.39,1.05.81,1.64.16.23.45.46.53.75-.05.03-.08.05-.08.06.06.25.35.68.5.91,2.8,4.2,9.31,3.68,11.43-.83l-.12-.06c.53-.85,1.17-1.8,1.43-2.78Z"/>
      <path class="cls-18" d="M88.1,27.01s.05.05.08.08c.32.38.66.75,1.05,1.05,2.53,1.85,5.62,2.27,8.43.72.89-.49,1.45-1.1,2.18-1.77.12-.11.29-.17.3-.38.16,0,.03.27,0,.34-.38,1.1-1.51,2.32-2.49,2.92-3.58,2.22-8.44.74-9.92-3.23-.05-.25.34.24.37.27Z"/>
      <path class="cls-20" d="M89.22,28.14s-.13-.03-.23-.11c-.26-.2-.68-.65-.83-.95.36.34.75.66,1.05,1.05Z"/>
      <path class="cls-22" d="M101.11,19.86l-.23-.6c.16.31.14.28.23.6Z"/>
      <path class="cls-10" d="M18.89,31.45c-.27.65-.27,1.61-.27,2.68-.03,17.77-.05,35.54-.04,53.32.12.26.12.48,0,.65-.14.06-.03.24,0,.35.36,1.54,1.43,1.62,2.83,1.69,3,.15,6.86.15,9.86,0,.43-.02,1.08-.07,1.48-.18,1.13-.29,1.42-1.3,1.49-2.34.33-4.85-.26-10.07,0-14.96.11-1.04.55-1.48,1.6-1.55h24.23c1.05.07,1.78.54,2.35,1.41,3.52,5.01,6.72,10.25,10.26,15.24.53.74,1.29,1.81,2.17,2.12.54.19,1.4.24,1.99.27,3.42.16,7.64.15,11.06,0,.53-.02,1.66-.08,2.09-.31.84-.46.73-1.36.35-2.1.1,0,.2,0,.3,0,.84,1.04.21,2.57-1.2,2.62-4.34.13-8.72.21-13.07.1-1.65-.04-2.63-.62-3.56-1.97-2.84-4.1-5.58-8.27-8.29-12.46-.82-1.23-1.69-2.44-2.56-3.6-.51-.68-1.22-1.03-2.08-1.02h-24.05c-1.06.15-1.12.49-1.3,1.39-.01.07-.04.14-.09.19-.31,4.74.28,9.83,0,14.59.19,1.39-.59,2.61-2.02,2.79-4.02.13-8.12.18-12.16,0-1.6-.07-2.14-1.49-2.07-2.89v-54.48c.02-.4.07-1.13.21-1.49.08-.19.25-.59.47-.49v.45Z"/>
      <path class="cls-5" d="M18.89,30.77v.23c-.66.44-.45,1.32-.6,1.99v54.47c.08.61.02,1.22.32,1.79.34.65,1,.9,1.69,1.02,3.68-.03,7.69.32,11.35.08,1.99-.13,2.7-.77,2.82-2.78.25.36.04,1.11-.11,1.5-.34.88-.96,1.13-1.8,1.39-3.8-.12-7.88.29-11.66.04-1.84-.12-2.62-.69-2.75-2.59v-55.3c.09-.62.15-1.52.76-1.84Z"/>
      <path class="cls-23" d="M19.49,87.64c.25.03.5.05.75.07.32.61.94.85,1.86.73,3.16-.03,6.32-.05,9.48-.05.34-.09.84-.26.85-.66.27-.04.55-.07.83-.09h.38c.05.17-.02.23-.18.22-.15,1.31-1.15,1.52-2.29,1.57-3.24.14-6.64.14-9.88-.01-1.05-.05-1.96-.36-2.07-1.55-.15,0-.22-.06-.18-.22h.45Z"/>
      <path class="cls-8" d="M33.25,87.64c-.12.18-.59.01-.67.08-.03.02-.02.24-.1.35-.16.2-.65.46-.92.47-3.33-.19-6.93.25-10.23,0-.55-.04-.77-.11-1.12-.53-.07-.08-.1-.27-.13-.29-.12-.08-.47.09-.59-.09h13.77Z"/>
      <path class="cls-5" d="M90.65,87.72s.1,0,.15,0c.69,1.41.24,2.43-1.32,2.7-4.31-.05-8.94.35-13.24.09-1.94-.12-2.59-.78-3.68-2.27-2.23-3.06-4.29-6.45-6.42-9.6-1.29-1.91-2.65-4.18-4.05-5.96-.65-.82-1.09-1.14-2.17-1.21h-24c-.55.05-1.13.34-1.29.91-.06.23.12.47-.18.6.07-1.02.29-1.55,1.39-1.65h24.23c1.26.08,1.65.63,2.35,1.55,3.68,4.88,6.76,10.53,10.41,15.47,1.06,1.44,1.71,1.9,3.56,2.01,4.2.25,8.72-.13,12.93-.09.81-.13,1.62-.53,1.62-1.46,0-.39-.25-.72-.3-1.09Z"/>
      <path class="cls-3" d="M19.04,87.64c.05.12.26.02.3.12.06.14.07.43.17.65.16.34.41.54.76.67.39.15,1.08.19,1.52.21,2.75.14,6.28.13,9.03,0,.34-.02.85-.05,1.18-.1.46-.07.92-.32,1.14-.74.12-.24.12-.54.19-.7.05-.11.25,0,.3-.12h.08c-.09,1.28-.6,1.86-1.92,1.96-3.59.26-7.5-.19-11.13-.01-1.3-.24-1.54-.73-1.7-1.95h.08Z"/>
      <path class="cls-23" d="M18.96,87.57s-.13-.16-.08-.25c.01-18.2,0-36.39,0-54.59-.29-.18-.16-.98,0-1.28v-.68l.08,56.8Z"/>
      <path class="cls-14" d="M18.89,32.73l-.15.33v54.32c.14.55.08,1.12.42,1.61.49.7,1.61.79,2.4.84,2.86.15,6.7.15,9.56,0,.77-.04,1.87-.13,2.37-.79.3-.4.42-1.16.45-1.65.33-4.8-.37-10.04,0-14.82.08-1.09.46-1.68,1.61-1.77h24.76c1.24.09,1.72.64,2.43,1.56,3.51,5.02,6.72,10.25,10.26,15.24,1.22,1.72,1.64,2.13,3.86,2.24,3.32.17,7.6.17,10.91,0,.5-.03,1.31-.08,1.76-.27.88-.35.76-1.11.45-1.84.07,0,.15,0,.23,0,.2.59.46,1.08.03,1.65-.23.31-.64.39-.99.51-4.21-.05-8.82.38-13,.1-.79-.05-1.61-.26-2.22-.79-4.33-5.68-7.91-11.95-12.23-17.64-.56-.46-1.17-.55-1.88-.61-8.26.08-16.55-.14-24.79.11-.96.28-1.01,1.25-1.05,2.11-.25,4.79.19,9.79,0,14.6-.12,1.53-.91,2.09-2.37,2.22-3.52-.22-7.36.28-10.83,0-1.23-.1-1.74-.4-2.16-1.53-.03-.08-.13-.33-.14-.35-.05-.19-.1-.44-.16-.63.07-18.4-.11-36.89.09-55.23.16-.26.03-.63.37-.78v1.28Z"/>
      <path class="cls-2" d="M89.37,52.06c-.01-1.63.02-3.26,0-4.89.12.08.08.29.08.41.02,1.49.02,3.01-.08,4.48Z"/>
      <path class="cls-2" d="M89.3,53.72c.02-.37-.03-.76,0-1.13.11.19.1.63.08.87-.01.13-.08.24-.08.25Z"/>
    </g>
  </g>
</svg>