<?xml version="1.0" encoding="UTF-8"?>
<svg id="_Слой_1" data-name="Слой 1" xmlns="http://www.w3.org/2000/svg" xmlns:xlink="http://www.w3.org/1999/xlink" viewBox="0 0 111.82 111.93">
  <defs>
    <style>
      .cls-1 {
        fill: #2f85c7;
      }

      .cls-2 {
        fill: #fff;
      }

      .cls-3 {
        fill: none;
      }

      .cls-4 {
        fill: #3186c7;
      }

      .cls-5 {
        clip-path: url(#clippath);
      }
    </style>
    <clipPath id="clippath">
      <rect class="cls-3" x=".86" y="1.23" width="110.1" height="110.1" rx="19.67" ry="19.67"/>
    </clipPath>
  </defs>
  <g class="cls-5">
    <g>
      <path class="cls-1" d="M98.73,0c6.71.24,12.83,6.4,13.09,13.09v85.71c-.11,6.07-6.65,12.82-12.73,12.89-28.97.34-58.18.34-87.2-.1-1.3-.02-2.81-.71-3.95-1.33C3.36,107.81-.12,102.91,0,97.61V13.84C.02,6.6,6.31.38,13.21,0h85.53Z"/>
      <path class="cls-2" d="M89.93,29.52c.7.65,1.14,1.85.9,2.81-3.76,15.09-6.53,30.45-10.31,45.53-.81,3.24-1.36,6.19-5.64,4.76l-16.66-11.27c-.26-.04-.92.53-1.16.73-1.69,1.38-7.05,7.46-8.63,7.73s-2.65-.23-3.38-1.61l-6.19-17.8-16.39-4.55c-1.35-.71-1.95-2.01-.86-3.29.6-.71,1.74-.96,2.62-1.31,20.37-8.04,41.5-14.31,61.9-22.31,1.26-.43,2.8-.36,3.81.58Z"/>
      <path class="cls-4" d="M47.02,74.37c-.06.05-.47-.03-.65,0l-4.49-13.73c-.18-.63-.21-1.45.24-1.97l35.58-20.29c.88-.18,1.29.5.76,1.21l-29.81,24.29c-.27.3-.4.66-.48,1.04-.29,1.3-.78,9.14-1.15,9.44Z"/>
    </g>
  </g>
</svg>