<?xml version="1.0" encoding="UTF-8"?>
<svg id="_Слой_1" data-name="Слой 1" xmlns="http://www.w3.org/2000/svg" xmlns:xlink="http://www.w3.org/1999/xlink" viewBox="0 0 111.82 111.93">
  <defs>
    <style>
      .cls-1 {
        fill: #2f85c7;
      }

      .cls-2 {
        fill: #fff;
      }

      .cls-3 {
        fill: none;
      }

      .cls-4 {
        fill: #3186c7;
      }

      .cls-5 {
        fill: #4563ab;
      }

      .cls-6 {
        clip-path: url(#clippath);
      }
    </style>
    <clipPath id="clippath">
      <rect class="cls-3" x=".86" y="1.23" width="110.1" height="110.1" rx="19.67" ry="19.67"/>
    </clipPath>
  </defs>
  <g class="cls-6">
    <g>
      <path class="cls-1" d="M98.73,0c6.71.24,12.83,6.4,13.09,13.09v85.71c-.11,6.07-6.65,12.82-12.73,12.89-28.97.34-58.18.34-87.2-.1-1.3-.02-2.81-.71-3.95-1.33C3.36,107.81-.12,102.91,0,97.61V13.84C.02,6.6,6.31.38,13.21,0h85.53Z"/>
      <path class="cls-2" d="M89.93,29.52c.7.65,1.14,1.85.9,2.81-3.76,15.09-6.53,30.45-10.31,45.53-.81,3.24-1.36,6.19-5.64,4.76l-16.66-11.27c-.26-.04-.92.53-1.16.73-1.69,1.38-7.05,7.46-8.63,7.73s-2.65-.23-3.38-1.61l-6.19-17.8-16.39-4.55c-1.35-.71-1.95-2.01-.86-3.29.6-.71,1.74-.96,2.62-1.31,20.37-8.04,41.5-14.31,61.9-22.31,1.26-.43,2.8-.36,3.81.58Z"/>
      <path class="cls-4" d="M47.02,74.37c-.06.05-.47-.03-.65,0l-4.49-13.73c-.18-.63-.21-1.45.24-1.97l35.58-20.29c.88-.18,1.29.5.76,1.21l-29.81,24.29c-.27.3-.4.66-.48,1.04-.29,1.3-.78,9.14-1.15,9.44Z"/>
    </g>
    <path class="cls-5" d="M111.33,13.28v85.25c-.39,6.55-6.43,12.56-13.02,12.8H13.06c-6.84-.43-12.94-6.89-12.91-13.77V14.24C.05,6.8,6.8.05,14.24.15h83.32c7.17,0,13.37,6.23,13.77,13.13Z"/>
  </g>
  <path class="cls-2" d="M84.31,64.37c1.65,1.73,6.23,6.34,6.21,8.67-.01,2.01-1.91,2.58-3.59,2.72-2.73.22-9.9.22-12.26-.77-3.06-1.29-7.75-8.57-10.09-8.58-2.93,0-2.01,6.65-3.36,8.15-1.61,1.8-8.81.8-11.12.25-15.02-3.52-22.83-22.35-28.92-34.86-.41-1.77.26-2.46,1.95-2.62,2.64-.25,7.76-.1,10.43.22.93.11,1.98.87,2.46,1.66.97,1.6,1.76,4.3,2.74,6.16s5.17,8.81,6.85,9.42c1.87.68,2.12-1.46,2.35-2.84.44-2.62.36-7.06,0-9.72-.29-2.16-1.87-3.07-3.86-3.41-.27-1.18.84-2.17,1.86-2.53,2.21-.79,11.53-.74,13.79,0,1.23.4,1.86,1.23,2.05,2.5.58,3.76-.4,8.35-.16,12.09.13,1.97.67,5.56,3.15,3.16,2.99-2.9,5.7-7.83,7.51-11.58.86-1.78,1.17-4.71,3.53-4.93,3.05-.28,9.34-.28,12.38,0,5.1.48-.25,7.55-1.67,9.62s-7.07,8.85-7.33,10.69c-.06.41-.03.79.09,1.19.39,1.27,3.89,4.16,4.99,5.32Z"/>
</svg>