<?xml version="1.0" encoding="UTF-8"?>
<svg id="_Слой_1" data-name="Слой 1" xmlns="http://www.w3.org/2000/svg" viewBox="0 0 760.75 122.54">
  <defs>
    <style>
      .cls-1 {
        fill: #fff;
      }

      .cls-2 {
        fill: #f47925;
      }
    </style>
  </defs>
  <g>
    <g>
      <path class="cls-1" d="M699.4,109.72v11.32h-45.36v-9l23.15-21.87c2.46-2.34,4.12-4.36,4.97-6.05.86-1.69,1.29-3.36,1.29-5.02,0-2.4-.81-4.24-2.44-5.53-1.63-1.29-4.02-1.93-7.16-1.93-2.63,0-5,.5-7.12,1.5-2.12,1-3.89,2.5-5.32,4.5l-10.12-6.52c2.34-3.49,5.57-6.22,9.69-8.19,4.12-1.97,8.83-2.96,14.15-2.96,4.46,0,8.36.73,11.71,2.19,3.34,1.46,5.95,3.52,7.8,6.17,1.86,2.66,2.79,5.79,2.79,9.39,0,3.26-.69,6.32-2.06,9.18-1.37,2.86-4.03,6.12-7.98,9.78l-13.81,13.03h25.81Z"/>
      <path class="cls-2" d="M675.13,59.98c4.46,0,8.36.73,11.71,2.19,3.34,1.46,5.95,3.52,7.8,6.17,1.86,2.66,2.79,5.79,2.79,9.39,0,3.26-.69,6.32-2.06,9.18-1.37,2.86-4.03,6.12-7.98,9.78l-13.81,13.03h25.81v11.32h-45.36v-9l23.15-21.87c2.46-2.34,4.12-4.36,4.97-6.05.86-1.69,1.29-3.36,1.29-5.02,0-2.4-.81-4.24-2.44-5.53-1.63-1.29-4.02-1.93-7.16-1.93-2.63,0-5,.5-7.12,1.5-2.12,1-3.89,2.5-5.32,4.5l-10.12-6.52c2.34-3.49,5.57-6.22,9.69-8.19,4.12-1.97,8.83-2.96,14.15-2.96M675.13,58.48c-5.52,0-10.5,1.05-14.8,3.11-4.34,2.08-7.8,5.01-10.29,8.71-.22.33-.31.75-.22,1.14.08.39.32.74.66.96l10.12,6.52c.25.16.53.24.81.24.47,0,.93-.22,1.22-.63,1.27-1.78,2.87-3.13,4.74-4.02,1.9-.9,4.08-1.36,6.48-1.36,2.78,0,4.88.54,6.23,1.61,1.26,1,1.87,2.42,1.87,4.35,0,1.41-.38,2.87-1.12,4.34-.78,1.53-2.35,3.42-4.67,5.64l-23.15,21.86c-.3.28-.47.68-.47,1.09v9c0,.83.67,1.5,1.5,1.5h45.36c.83,0,1.5-.67,1.5-1.5v-11.32c0-.83-.67-1.5-1.5-1.5h-22.04l11.06-10.44c4.11-3.81,6.83-7.16,8.3-10.22,1.46-3.05,2.21-6.35,2.21-9.82,0-3.9-1.03-7.35-3.06-10.25-2.01-2.88-4.85-5.13-8.43-6.69-3.52-1.53-7.66-2.31-12.3-2.31h0Z"/>
    </g>
    <g>
      <path class="cls-1" d="M759.25,108.43h-9.78v12.61h-13.55v-12.61h-32.33v-9.35l28.3-38.08h14.58l-26.24,36.1h16.12v-11.23h13.12v11.23h9.78v11.32Z"/>
      <path class="cls-2" d="M746.48,61.01h0M746.48,61.01l-26.24,36.1h16.12v-11.23h13.12v11.23h9.78v11.32h-9.78v12.61h-13.55v-12.61h-32.33v-9.35l28.3-38.08h14.58M746.48,59.51h-14.58c-.47,0-.92.22-1.2.61l-28.3,38.08c-.19.26-.3.57-.3.89v9.35c0,.83.67,1.5,1.5,1.5h30.83v11.11c0,.83.67,1.5,1.5,1.5h13.55c.83,0,1.5-.67,1.5-1.5v-11.11h8.28c.83,0,1.5-.67,1.5-1.5v-11.32c0-.83-.67-1.5-1.5-1.5h-8.28v-9.73c0-.83-.67-1.5-1.5-1.5h-13.12c-.83,0-1.5.67-1.5,1.5v9.73h-11.68l24.47-33.67c.2-.26.33-.58.33-.93,0-.83-.67-1.5-1.5-1.5h0ZM746.48,62.51h0,0Z"/>
    </g>
  </g>
  <g>
    <g>
      <path class="cls-1" d="M1.5,88.19L67.66,2.49h44.22l65.62,85.71h-35.06l-16-21.61H52.55l-16.18,21.61H1.5ZM114.4,50.41l-23.73-31.86h-1.44l-24.63,31.86h49.8Z"/>
      <path class="cls-2" d="M111.88,2.49l65.62,85.71h-35.06l-16-21.61H52.55l-16.18,21.61H1.5L67.66,2.49h44.22M64.6,50.41h49.8l-23.73-31.86h-1.44l-24.63,31.86M111.88.99h-44.22c-.46,0-.9.22-1.19.58L.31,87.28c-.35.45-.41,1.06-.16,1.58s.77.84,1.35.84h34.88c.47,0,.92-.22,1.2-.6l15.73-21.01h72.38l15.55,21c.28.38.73.61,1.21.61h35.06c.57,0,1.09-.32,1.34-.84.25-.51.19-1.12-.15-1.58L113.07,1.58c-.28-.37-.72-.59-1.19-.59h0ZM67.66,48.91l22.28-28.83,21.47,28.83h-43.76Z"/>
    </g>
    <g>
      <g>
        <polygon class="cls-1" points="239.87 55.59 222.63 71.15 218.49 71.15 218.49 2.49 188.65 2.49 188.65 88.19 239.89 88.19 275.49 55.59 239.87 55.59"/>
        <path class="cls-2" d="M218.49,2.49v68.67h4.13l17.24-15.57h35.62l-35.6,32.6h-51.23V2.49h29.84M275.49,55.59h0M218.49.99h-29.84c-.83,0-1.5.67-1.5,1.5v85.71c0,.83.67,1.5,1.5,1.5h51.23c.38,0,.74-.14,1.01-.39l35.56-32.57c.32-.28.52-.68.52-1.14,0-.83-.67-1.5-1.5-1.5h-35.62c-.37,0-.73.14-1.01.39l-16.81,15.18h-2.06V2.49c0-.83-.67-1.5-1.5-1.5h0Z"/>
      </g>
      <g>
        <polygon class="cls-1" points="298.67 2.49 263.25 34.48 298.54 34.48 314.85 19.53 318.99 19.53 318.99 88.19 348.83 88.19 348.83 2.49 298.67 2.49"/>
        <path class="cls-2" d="M348.83,2.49v85.71h-29.84V19.53h-4.13l-16.32,14.94h-35.29l35.43-31.99h50.16M348.83.99h-50.16c-.37,0-.73.14-1.01.39l-35.43,31.99c-.46.42-.62,1.07-.39,1.65.22.58.78.96,1.4.96h35.29c.38,0,.74-.14,1.01-.39l15.89-14.55h2.05v67.16c0,.83.67,1.5,1.5,1.5h29.84c.83,0,1.5-.67,1.5-1.5V2.49c0-.83-.67-1.5-1.5-1.5h0Z"/>
      </g>
    </g>
    <g>
      <path class="cls-1" d="M482.92,66.42c-3.15,3.69-9.73,4.73-21.54,4.73h-38.29c-17.08,0-24.09-2.48-24.09-15.56v-21.24c0-13.46,4.13-15.81,24.09-15.81h38.29c11.06,0,17.72,1.6,21.11,5.1h31.86c-3.75-17.61-21.21-22.15-47.22-22.15h-49.62c-36.67,0-48.36,7.04-48.36,32.11v24.33c0,22.97,10.97,30.25,45.48,30.25h55.55c32.22,0,42.46-5.2,44.64-21.77h-31.9Z"/>
      <path class="cls-2" d="M467.13,1.5c26.01,0,43.47,4.54,47.22,22.15h-31.86c-3.39-3.5-10.05-5.1-21.11-5.1h-38.29c-19.95,0-24.09,2.35-24.09,15.81v21.24c0,13.09,7.01,15.56,24.09,15.56h38.29c11.81,0,18.4-1.04,21.54-4.73h31.9c-2.18,16.58-12.41,21.77-44.64,21.77h-55.55c-34.52,0-45.48-7.29-45.48-30.25v-24.33c0-25.07,11.69-32.11,48.36-32.11h49.62M514.83,66.42h0M467.13,0h-49.62c-19.75,0-31.34,2.06-38.75,6.9-7.68,5.01-11.11,13.25-11.11,26.71v24.33c0,12.47,3.23,20.17,10.47,24.99,7.04,4.68,18.3,6.77,36.52,6.77h55.55c17.13,0,27.37-1.44,34.25-4.82,6.98-3.43,10.65-9.04,11.87-18.16.02-.09.03-.19.03-.29,0-.83-.67-1.5-1.5-1.5h-31.91c-.44,0-.86.19-1.14.53-2.58,3.03-8.3,4.21-20.4,4.21h-38.29c-17.94,0-22.59-2.89-22.59-14.06v-21.24c0-11.6,2.08-14.31,22.59-14.31h38.29c10.6,0,16.97,1.48,20.03,4.64.28.29.67.46,1.08.46h31.86c.45,0,.88-.2,1.17-.56.28-.35.4-.81.3-1.26-1.9-8.91-7.19-15.05-16.16-18.75-7.58-3.13-17.92-4.58-32.53-4.58h0Z"/>
    </g>
    <g>
      <path class="cls-1" d="M664.89,2.49v17.04h-52.67v68.66h-29.84V19.53h-52.14V2.49h134.65Z"/>
      <path class="cls-2" d="M664.89,2.49v17.04h-52.67v68.66h-29.84V19.53h-52.14V2.49h134.65M664.89.99h-134.65c-.83,0-1.5.67-1.5,1.5v17.04c0,.83.67,1.5,1.5,1.5h50.64v67.16c0,.83.67,1.5,1.5,1.5h29.84c.83,0,1.5-.67,1.5-1.5V21.03h51.17c.83,0,1.5-.67,1.5-1.5V2.49c0-.83-.67-1.5-1.5-1.5h0Z"/>
    </g>
  </g>
</svg>